<?xml version="1.0" standalone="no"?>
<!DOCTYPE svg PUBLIC "-//W3C//DTD SVG 20010904//EN"
 "http://www.w3.org/TR/2001/REC-SVG-20010904/DTD/svg10.dtd">
<svg version="1.0" xmlns="http://www.w3.org/2000/svg"
 width="512.000000pt" height="512.000000pt" viewBox="0 0 512.000000 512.000000"
 preserveAspectRatio="xMidYMid meet">
<metadata>
Created by potrace 1.10, written by Peter Selinger 2001-2011
</metadata>
<g transform="translate(0.000000,512.000000) scale(0.100000,-0.100000)"
fill="#000000" stroke="none">
<path d="M316 5105 c-56 -20 -107 -65 -136 -121 -24 -47 -25 -54 -25 -251 0
-225 3 -236 65 -236 61 0 64 12 70 233 l5 200 28 27 27 28 1401 3 c1262 2
1404 1 1434 -14 65 -31 65 -26 65 -584 l0 -501 -27 21 c-16 11 -57 45 -93 75
-133 111 -321 203 -511 251 -143 36 -380 44 -530 19 -255 -42 -498 -158 -681
-324 l-66 -61 -226 0 c-221 0 -225 0 -240 -22 -23 -33 -19 -64 10 -87 24 -19
40 -21 185 -21 l159 0 -51 -77 -51 -78 -213 -5 c-191 -4 -215 -7 -234 -24 -26
-24 -27 -57 -2 -87 19 -23 24 -24 201 -27 135 -2 180 -6 176 -15 -3 -7 -15
-42 -26 -79 l-22 -68 -154 0 c-141 0 -156 -2 -174 -20 -26 -26 -26 -64 0 -90
18 -18 33 -20 161 -20 l140 0 -8 -47 c-13 -80 -7 -302 11 -403 47 -264 164
-494 354 -692 235 -244 515 -378 855 -408 292 -25 610 55 846 214 29 20 56 36
60 36 3 0 39 -33 79 -73 l72 -72 0 -429 c0 -476 0 -480 -65 -510 -27 -13 -77
-16 -294 -16 -248 0 -262 -1 -281 -20 -26 -26 -26 -64 0 -90 19 -19 33 -20
298 -20 257 0 280 2 322 21 55 25 95 62 123 114 21 39 22 52 25 429 l3 390
327 -327 c218 -218 339 -331 364 -342 71 -29 153 -13 211 43 55 52 73 116 56
190 -11 44 -44 79 -485 522 l-473 475 59 92 c133 211 200 448 200 709 0 104
-17 255 -36 316 -15 48 -76 64 -109 28 -21 -23 -21 -39 -1 -154 31 -175 15
-384 -43 -564 -61 -187 -151 -332 -296 -478 -233 -236 -516 -354 -850 -354
-526 0 -968 314 -1144 812 -107 305 -76 680 80 967 119 217 337 424 550 519
463 208 977 123 1344 -220 76 -71 180 -205 227 -293 17 -33 39 -65 47 -72 39
-30 101 2 101 53 0 25 -60 138 -106 200 l-23 32 -3 608 c-3 602 -3 609 -25
649 -28 52 -68 89 -123 114 -45 20 -58 21 -1460 20 -1177 0 -1421 -2 -1454
-14z m3109 -3295 l-45 -45 -87 87 -88 88 45 45 44 45 88 -87 88 -88 -45 -45z
m462 -372 c289 -289 323 -326 323 -355 0 -35 -29 -63 -64 -63 -21 0 -666 635
-666 654 0 11 70 86 79 86 3 0 151 -145 328 -322z"/>
<path d="M686 4539 c-29 -23 -33 -54 -10 -87 l15 -22 454 0 c503 0 485 -2 485
65 0 66 6 65 -481 65 -426 0 -437 0 -463 -21z"/>
<path d="M184 4332 c-6 -4 -16 -17 -23 -29 -15 -30 -16 -3419 0 -3492 14 -65
56 -123 116 -158 l48 -28 1037 -3 c1029 -2 1038 -2 1058 18 23 23 26 58 6 86
-14 19 -39 19 -1045 24 l-1031 5 -27 28 -28 27 -5 1744 c-5 1697 -6 1744 -24
1765 -19 21 -61 28 -82 13z"/>
<path d="M2128 3995 c-437 -71 -788 -410 -878 -845 -30 -146 -24 -360 14 -498
52 -188 141 -340 280 -478 211 -209 464 -314 762 -314 453 0 866 292 1011 715
212 618 -156 1274 -792 1411 -100 22 -292 26 -397 9z m378 -140 c321 -66 595
-317 697 -641 105 -332 15 -697 -233 -945 -321 -321 -825 -370 -1200 -116 -66
45 -186 163 -236 233 -57 80 -119 210 -146 309 -32 119 -32 356 0 474 103 379
407 646 795 701 81 12 225 5 323 -15z"/>
<path d="M680 1330 c-11 -11 -20 -31 -20 -45 0 -14 9 -34 20 -45 19 -19 33
-20 468 -20 422 0 450 1 465 18 25 27 22 78 -5 96 -20 14 -81 16 -465 16 -430
0 -444 -1 -463 -20z"/>
</g>
</svg>
