<?xml version="1.0" standalone="no"?>
<!DOCTYPE svg PUBLIC "-//W3C//DTD SVG 20010904//EN"
 "http://www.w3.org/TR/2001/REC-SVG-20010904/DTD/svg10.dtd">
<svg version="1.0" xmlns="http://www.w3.org/2000/svg"
 width="512.000000pt" height="512.000000pt" viewBox="0 0 512.000000 512.000000"
 preserveAspectRatio="xMidYMid meet">
<metadata>
Created by potrace 1.10, written by Peter Selinger 2001-2011
</metadata>
<g transform="translate(0.000000,512.000000) scale(0.050000,-0.050000)"
fill="#f50000" stroke="none">
<path d="M633 10211 c-266 -95 -323 -227 -323 -745 0 -449 6 -473 130 -473
121 0 129 26 140 467 l10 399 55 56 56 55 2801 5 c2524 5 2808 2 2868 -26 131
-63 130 -54 130 -1168 l0 -1004 -55 42 c-30 24 -113 91 -185 151 -961 800
-2498 752 -3443 -109 l-133 -121 -451 0 c-494 0 -513 -5 -513 -133 0 -104 77
-127 422 -127 l317 0 -101 -155 -101 -155 -426 -10 c-463 -11 -511 -23 -511
-131 0 -124 43 -138 439 -145 271 -5 361 -13 353 -30 -5 -13 -29 -85 -53 -159
l-43 -135 -308 0 c-338 0 -388 -17 -388 -130 0 -111 52 -130 361 -130 l281 0
-15 -95 c-51 -314 3 -841 125 -1205 548 -1639 2578 -2334 4005 -1372 134 90
109 97 279 -73 l144 -146 0 -856 c0 -1153 68 -1053 -718 -1053 -575 0 -602 -6
-602 -130 0 -125 24 -130 635 -130 610 1 658 9 792 136 143 136 142 129 149
993 l6 778 654 -652 c437 -437 679 -663 728 -684 296 -123 609 150 533 466
-21 87 -87 158 -968 1043 l-946 950 116 184 c335 531 475 1229 370 1838 -46
272 -66 308 -167 308 -125 0 -143 -70 -94 -348 257 -1438 -896 -2792 -2378
-2792 -2176 0 -3239 2635 -1671 4146 1137 1097 3051 806 3784 -575 94 -177
171 -217 257 -131 72 72 11 246 -172 493 l-47 63 -5 1217 c-7 1431 1 1391
-296 1525 -117 53 -5681 65 -5827 13z m6217 -6590 l-90 -91 -175 175 -174 174
89 91 89 90 175 -174 176 -175 -90 -90z m925 -746 c578 -578 645 -651 645
-709 0 -69 -58 -126 -129 -126 -40 0 -1331 1269 -1331 1309 0 20 140 171 159
171 6 0 301 -290 656 -645z"/>
<path d="M1373 9079 c-60 -47 -68 -109 -22 -175 l31 -44 908 0 c1006 0 970 -5
970 130 0 132 13 130 -962 130 -853 0 -874 -1 -925 -41z"/>
<path d="M368 8665 c-68 -45 -68 -66 -68 -3523 0 -3966 -19 -3675 254 -3836
l96 -56 2075 -5 c2308 -6 2155 -15 2155 121 0 134 170 123 -2118 134 l-2061
10 -56 55 -55 56 -10 3487 c-10 3394 -11 3489 -48 3530 -38 42 -121 55 -164
27z"/>
<path d="M4256 7990 c-1720 -281 -2404 -2413 -1168 -3641 1213 -1207 3266
-594 3624 1081 312 1461 -975 2803 -2456 2560z m756 -281 c1437 -292 1974
-2124 929 -3170 -1190 -1192 -3201 -363 -3209 1321 -6 1226 1067 2096 2280
1849z"/>
<path d="M1360 2660 c-22 -22 -40 -62 -40 -90 0 -132 -16 -130 977 -130 998 0
963 -5 963 135 0 126 8 125 -974 125 -859 0 -887 -1 -926 -40z"/>
</g>
</svg>
