<?xml version="1.0" standalone="no"?>
<!DOCTYPE svg PUBLIC "-//W3C//DTD SVG 20010904//EN"
 "http://www.w3.org/TR/2001/REC-SVG-20010904/DTD/svg10.dtd">
<svg version="1.0" xmlns="http://www.w3.org/2000/svg"
 width="300.000000pt" height="300.000000pt" viewBox="0 0 300.000000 300.000000"
 preserveAspectRatio="xMidYMid meet">
<metadata>
Created by potrace 1.10, written by Peter Selinger 2001-2011
</metadata>
<g transform="translate(0.000000,300.000000) scale(0.050000,-0.050000)"
fill="#ffffff" stroke="none">
<path d="M2749 5564 c-71 -34 -151 -93 -193 -142 l-72 -84 -157 -5 c-298 -9
-509 -193 -569 -496 -18 -91 -32 -117 -75 -136 -391 -177 -976 -787 -1218
-1271 -847 -1688 283 -3050 2531 -3050 2256 0 3387 1358 2539 3050 -242 484
-827 1094 -1218 1271 -43 19 -57 45 -75 136 -60 303 -271 487 -569 496 l-156
5 -76 86 c-171 194 -459 252 -692 140z m407 -392 c55 -63 61 -86 74 -260 17
-224 8 -219 160 -95 204 164 297 185 408 92 62 -52 69 -77 92 -293 l13 -114
165 -91 c1253 -682 1763 -2183 1012 -2978 -433 -459 -1071 -663 -2080 -663
-1009 0 -1647 204 -2080 663 -751 795 -241 2296 1012 2978 l165 91 13 114 c23
216 30 241 92 293 111 93 204 72 408 -92 152 -124 143 -129 160 95 18 248 74
328 230 328 84 0 103 -8 156 -68z"/>
<path d="M2089 4086 c-105 -181 -187 -334 -182 -340 35 -35 306 -180 316 -169
17 16 377 638 377 650 0 5 -72 49 -159 99 l-160 90 -192 -330z"/>
<path d="M3565 4331 c-80 -46 -151 -90 -157 -96 -7 -7 37 -96 97 -199 60 -102
146 -251 192 -330 l83 -143 160 91 c88 49 160 94 160 99 0 10 -382 668 -387
665 -2 -1 -68 -40 -148 -87z"/>
<path d="M2820 3940 l0 -380 180 0 180 0 0 380 0 380 -180 0 -180 0 0 -380z"/>
</g>
</svg>
