<?xml version="1.0" standalone="no"?>
<!DOCTYPE svg PUBLIC "-//W3C//DTD SVG 20010904//EN"
 "http://www.w3.org/TR/2001/REC-SVG-20010904/DTD/svg10.dtd">
<svg version="1.0" xmlns="http://www.w3.org/2000/svg"
 width="96.000000pt" height="96.000000pt" viewBox="0 0 96.000000 96.000000"
 preserveAspectRatio="xMidYMid meet">
<metadata>
Created by potrace 1.10, written by Peter Selinger 2001-2011
</metadata>
<g transform="translate(0.000000,96.000000) scale(0.100000,-0.100000)"
fill="#0d0d0d" stroke="none">
<path d="M171 826 c-48 -27 -50 -42 -51 -344 0 -307 3 -326 55 -350 41 -19
577 -17 614 2 48 25 51 45 51 346 0 301 -3 321 -51 346 -39 20 -582 20 -618 0z
m620 -35 l30 -30 -1 -281 c-1 -279 -1 -280 -25 -308 l-23 -27 -275 -3 c-292
-2 -327 2 -345 43 -8 16 -11 119 -11 297 0 292 2 308 52 328 12 5 145 9 295 9
l274 1 29 -29z"/>
<path d="M304 678 c-49 -57 -50 -51 22 -127 l67 -71 -67 -70 c-73 -76 -75 -86
-20 -129 32 -25 41 -21 117 55 l58 58 62 -62 c34 -34 71 -62 81 -62 19 0 76
52 76 70 0 6 -27 40 -61 75 -59 62 -60 64 -45 88 9 13 34 40 56 60 22 19 40
44 40 55 0 24 -47 72 -69 72 -9 0 -41 -25 -71 -55 -30 -30 -59 -55 -64 -55 -5
0 -37 27 -72 60 -34 33 -69 60 -76 60 -8 0 -23 -10 -34 -22z m111 -68 l69 -70
68 67 68 68 27 -28 28 -27 -68 -67 -67 -68 72 -72 72 -72 -30 -30 -29 -30 -72
72 -73 71 -73 -72 -72 -72 -28 27 -27 28 72 72 72 73 -72 73 -72 72 27 28 c15
15 30 27 33 27 3 0 37 -32 75 -70z"/>
</g>
</svg>
