<?xml version="1.0" standalone="no"?>
<!DOCTYPE svg PUBLIC "-//W3C//DTD SVG 20010904//EN"
 "http://www.w3.org/TR/2001/REC-SVG-20010904/DTD/svg10.dtd">
<svg version="1.0" xmlns="http://www.w3.org/2000/svg"
 width="300.000000pt" height="300.000000pt" viewBox="0 0 300.000000 300.000000"
 preserveAspectRatio="xMidYMid meet">
<metadata>
Created by potrace 1.10, written by Peter Selinger 2001-2011
</metadata>
<g transform="translate(0.000000,300.000000) scale(0.100000,-0.100000)"
fill="#ffffff" stroke="none">
<path d="M1450 2899 c-319 -34 -618 -176 -845 -404 -192 -192 -305 -389 -374
-654 l-27 -104 -22 35 c-52 84 -164 68 -179 -25 -5 -35 1 -48 98 -193 57 -86
114 -164 127 -175 31 -24 69 -24 103 -1 35 23 239 227 261 260 27 40 23 79
-11 113 -45 44 -89 40 -147 -13 l-45 -42 6 30 c57 252 155 440 317 611 276
288 664 425 1047 369 264 -39 488 -147 674 -325 504 -481 504 -1281 0 -1762
-348 -332 -863 -429 -1309 -247 -156 64 -313 181 -435 324 -88 102 -115 117
-168 90 -63 -33 -68 -92 -15 -163 93 -124 254 -266 399 -351 413 -242 972
-236 1395 14 354 208 580 524 672 935 30 137 33 407 5 539 -88 417 -320 744
-678 955 -173 102 -370 164 -584 185 -123 11 -144 11 -265 -1z"/>
<path d="M1494 2372 c-12 -9 -27 -27 -33 -39 -14 -28 -16 -880 -1 -917 6 -17
115 -105 310 -251 260 -195 305 -225 336 -225 71 0 118 82 78 138 -8 12 -134
113 -280 223 l-264 200 0 415 0 416 -29 29 c-34 34 -84 39 -117 11z"/>
</g>
</svg>
