<?xml version="1.0" standalone="no"?>
<!DOCTYPE svg PUBLIC "-//W3C//DTD SVG 20010904//EN"
 "http://www.w3.org/TR/2001/REC-SVG-20010904/DTD/svg10.dtd">
<svg version="1.0" xmlns="http://www.w3.org/2000/svg"
 width="48.000000pt" height="48.000000pt" viewBox="0 0 48.000000 48.000000"
 preserveAspectRatio="xMidYMid meet">
<metadata>
Created by potrace 1.10, written by Peter Selinger 2001-2011
</metadata>
<g transform="translate(0.000000,48.000000) scale(0.050000,-0.050000)"
fill="#ffffff" stroke="none">
<path d="M211 795 c-76 -345 -111 -507 -111 -520 0 -8 39 -15 87 -15 l86 0 24
102 c12 55 23 139 24 185 0 45 15 101 32 123 31 39 31 39 21 -10 -42 -188 -41
-200 9 -200 102 0 199 42 236 103 44 72 76 42 42 -40 -17 -42 -62 -73 -189
-130 -167 -76 -212 -129 -212 -250 0 -49 178 -27 188 22 33 163 27 155 113
155 149 0 259 98 259 230 0 57 -80 150 -129 150 -17 0 -31 13 -31 29 0 108
-426 171 -449 66z"/>
</g>
</svg>
