 <svg  version="1.0" xmlns="http://www.w3.org/2000/svg"  width="48.000000pt" height="48.000000pt" viewBox="0 0 48.000000 48.000000"  preserveAspectRatio="xMidYMid meet">  <g transform="translate(0.000000,48.000000) scale(0.100000,-0.100000)" fill="#ffffff" stroke="none"> <path d="M35 410 c-10 -16 4 -30 29 -30 18 0 25 -10 39 -53 9 -30 17 -79 17 -110 0 -58 21 -97 53 -97 9 0 9 -3 -1 -9 -21 -13 -10 -46 16 -49 27 -4 40 22 22 43 -11 13 -4 15 55 15 59 0 66 -2 55 -15 -18 -21 -5 -47 22 -43 26 3 37 36 16 49 -10 6 -10 9 0 9 6 0 12 9 12 20 0 18 -8 20 -102 22 -89 3 -103 5 -106 21 -3 15 7 17 98 17 l101 0 40 85 c21 47 39 88 39 90 0 3 -9 5 -20 5 -15 0 -28 -17 -51 -70 l-32 -70 -82 0 -81 0 -24 77 c-14 42 -31 82 -38 90 -16 15 -68 18 -77 3z"/> <path d="M240 380 c0 -13 -7 -20 -20 -20 -13 0 -20 -7 -20 -20 0 -13 7 -20 20 -20 13 0 20 -7 20 -20 0 -13 7 -20 20 -20 13 0 20 7 20 20 0 13 7 20 20 20 13 0 20 7 20 20 0 13 -7 20 -20 20 -13 0 -20 7 -20 20 0 13 -7 20 -20 20 -13 0 -20 -7 -20 -20z"/> </g> </svg> 