 <svg  version="1.0" xmlns="http://www.w3.org/2000/svg"  width="1536.000000pt" height="1536.000000pt" viewBox="0 0 1536.000000 1536.000000"  preserveAspectRatio="xMidYMid meet">  <g transform="translate(0.000000,1536.000000) scale(0.100000,-0.100000)" fill="#bababa" stroke="none"> <path d="M930 15301 c-249 -83 -423 -298 -469 -582 -16 -95 -15 -1064 1 -1110 38 -111 158 -168 262 -125 41 17 101 78 112 114 4 15 10 277 13 582 l6 555 36 55 c55 83 87 109 192 154 35 15 378 16 4207 16 3823 0 4172 -1 4207 -16 21 -9 45 -20 53 -25 8 -5 24 -13 35 -18 23 -11 85 -74 106 -111 9 -14 23 -52 32 -85 15 -55 17 -197 17 -1559 1 -824 -1 -1500 -3 -1503 -10 -9 -54 21 -75 51 -76 111 -568 489 -742 569 -8 4 -28 16 -45 27 -40 25 -283 148 -365 183 -36 16 -78 34 -95 42 -16 7 -49 20 -72 29 -24 9 -60 23 -80 31 -43 16 -329 100 -413 120 -30 7 -75 18 -100 25 -25 6 -73 15 -106 19 -34 5 -67 12 -73 16 -7 4 -52 11 -99 15 -48 5 -118 14 -157 21 -114 19 -746 16 -863 -4 -50 -10 -109 -17 -130 -17 -20 0 -59 -7 -86 -15 -27 -8 -66 -15 -87 -15 -21 0 -50 -5 -66 -11 -15 -7 -48 -15 -73 -19 -25 -4 -72 -15 -105 -24 -33 -10 -91 -26 -130 -36 -122 -33 -350 -113 -449 -159 -33 -16 -108 -50 -166 -77 -58 -26 -118 -56 -135 -65 -16 -10 -43 -25 -60 -33 -66 -33 -295 -177 -398 -251 -64 -46 -219 -166 -232 -180 -5 -6 -32 -29 -60 -51 -27 -21 -94 -82 -149 -134 l-98 -95 -663 0 -663 0 -43 -30 c-138 -97 -113 -280 47 -349 38 -17 76 -18 490 -13 247 3 458 6 469 8 24 5 34 -29 13 -45 -27 -21 -178 -226 -178 -241 0 -2 -13 -23 -29 -47 -15 -24 -43 -70 -61 -103 -18 -33 -34 -62 -36 -64 -2 -2 -275 -3 -608 -2 -642 2 -662 1 -724 -46 -120 -91 -81 -301 63 -337 35 -9 957 -8 1027 1 64 8 68 -7 24 -98 -35 -76 -61 -140 -76 -194 -4 -16 -13 -43 -19 -60 -5 -16 -18 -59 -27 -95 l-17 -65 -434 3 c-377 3 -439 2 -481 -12 -81 -27 -132 -100 -132 -188 0 -66 30 -121 85 -160 l40 -27 423 -1 c331 0 422 -3 422 -12 0 -7 -9 -60 -19 -118 -30 -160 -44 -507 -31 -730 20 -336 76 -688 142 -875 5 -16 14 -48 18 -70 4 -22 18 -65 29 -95 12 -30 33 -86 46 -125 68 -204 266 -616 350 -730 12 -16 24 -34 26 -40 6 -15 133 -201 182 -266 110 -147 219 -271 387 -439 178 -178 411 -373 565 -472 172 -110 190 -122 220 -138 11 -6 43 -24 70 -40 46 -28 294 -151 375 -187 19 -8 43 -19 52 -24 24 -12 82 -33 223 -80 66 -22 129 -44 140 -49 11 -5 31 -11 45 -14 52 -10 116 -29 148 -42 18 -8 47 -14 65 -14 17 0 49 -6 72 -14 100 -35 401 -73 669 -85 180 -7 465 -1 606 14 137 14 346 47 425 67 22 5 51 12 65 14 125 24 527 155 660 216 36 16 79 35 95 42 215 96 538 284 660 385 54 45 77 46 108 6 9 -13 105 -110 212 -216 l195 -194 0 -1273 c0 -1155 -2 -1279 -17 -1340 -9 -37 -23 -78 -31 -92 -22 -36 -94 -110 -107 -110 -6 0 -16 -5 -22 -11 -7 -7 -36 -20 -65 -30 -49 -18 -98 -19 -830 -19 l-778 0 -40 -25 c-62 -39 -93 -94 -93 -163 0 -63 17 -104 60 -143 70 -64 3 -59 885 -59 673 1 809 3 843 15 22 8 48 15 57 15 30 0 171 70 227 112 152 115 245 262 283 446 18 91 19 139 15 1146 -3 855 -6 1059 -17 1093 -29 88 13 65 157 -87 187 -196 1763 -1769 1807 -1803 188 -147 412 -168 632 -60 62 30 175 129 218 191 40 59 81 166 96 255 19 115 -6 249 -71 377 -16 32 -426 448 -1425 1449 -1430 1432 -1422 1423 -1376 1443 8 3 85 105 109 143 7 11 49 81 93 155 44 74 85 142 90 150 6 8 13 22 16 30 3 8 9 22 14 30 14 23 80 160 80 165 0 3 13 33 28 67 57 125 92 211 92 227 0 9 7 25 15 35 8 11 15 29 15 41 0 12 4 25 9 31 6 5 14 27 19 49 6 22 21 78 34 125 14 47 33 121 42 165 10 44 24 103 32 131 8 28 14 64 14 80 0 16 7 51 15 78 8 27 15 72 15 100 0 28 7 87 15 131 20 114 20 726 0 840 -8 44 -15 101 -15 126 0 25 -7 68 -15 95 -8 27 -15 61 -15 77 0 15 -6 53 -14 85 -8 31 -22 88 -31 126 -29 122 -84 169 -198 168 -65 0 -71 -2 -115 -40 -32 -26 -53 -55 -65 -88 -20 -51 -18 -68 15 -204 6 -25 14 -65 18 -90 4 -25 12 -72 18 -105 30 -165 35 -223 39 -522 4 -264 2 -340 -11 -423 -9 -55 -16 -118 -16 -140 0 -21 -5 -51 -11 -67 -6 -15 -14 -57 -19 -93 -5 -36 -14 -85 -20 -110 -7 -25 -19 -72 -27 -105 -26 -105 -94 -326 -121 -395 -5 -14 -18 -45 -28 -70 -65 -165 -197 -423 -291 -567 -29 -45 -53 -85 -53 -88 0 -5 -56 -81 -152 -210 -103 -136 -389 -441 -488 -520 -41 -33 -133 -109 -152 -126 -10 -8 -43 -33 -74 -55 -30 -21 -81 -57 -112 -79 -81 -58 -241 -154 -357 -214 -55 -29 -107 -56 -115 -60 -8 -5 -31 -16 -50 -24 -118 -53 -149 -66 -185 -77 -22 -7 -44 -15 -50 -19 -17 -9 -168 -62 -205 -71 -19 -4 -48 -13 -65 -18 -103 -36 -244 -68 -395 -92 -74 -11 -163 -25 -198 -31 -99 -15 -531 -22 -697 -10 -181 12 -337 33 -465 62 -52 12 -113 25 -135 29 -66 14 -128 32 -163 46 -18 8 -41 14 -52 14 -10 0 -21 4 -25 9 -3 5 -20 12 -38 16 -52 11 -323 117 -407 160 -25 13 -65 33 -90 45 -25 12 -54 27 -65 34 -11 6 -49 27 -84 46 -152 83 -426 275 -556 391 -172 153 -247 228 -358 354 -39 44 -73 82 -77 85 -14 11 -197 259 -251 341 -131 197 -260 453 -346 684 -8 22 -21 53 -29 68 -8 16 -14 35 -14 42 0 8 -6 29 -14 47 -21 51 -37 100 -46 138 -4 19 -19 80 -33 135 -80 325 -117 718 -97 1053 14 240 49 481 97 677 14 55 29 116 33 135 9 38 25 87 46 138 8 18 14 40 14 50 0 9 7 26 15 36 8 11 15 28 15 37 0 10 7 30 15 46 8 15 30 69 49 118 31 78 144 311 166 340 4 6 22 37 40 70 18 33 46 79 61 103 16 24 29 45 29 48 0 3 5 10 11 17 6 7 38 51 72 98 122 169 168 226 282 348 124 133 184 191 330 320 87 77 365 281 382 281 3 0 22 14 43 30 21 17 41 30 44 30 4 0 23 11 44 23 41 27 256 136 372 191 86 40 281 113 328 122 18 4 35 11 38 15 3 5 16 9 29 9 13 0 39 6 57 14 36 15 99 32 163 45 22 5 60 13 85 19 255 62 623 90 950 73 249 -13 388 -32 560 -73 25 -6 65 -14 90 -17 25 -4 55 -13 67 -19 12 -7 35 -12 52 -12 16 0 32 -4 36 -9 3 -5 20 -13 38 -16 40 -9 221 -69 307 -102 149 -57 404 -187 564 -286 110 -68 308 -207 331 -231 6 -6 49 -42 97 -81 106 -84 394 -375 463 -465 27 -36 52 -67 55 -70 3 -3 19 -23 35 -45 17 -22 33 -42 36 -45 3 -3 39 -54 79 -115 40 -60 80 -121 89 -135 10 -14 20 -32 24 -40 4 -8 21 -37 37 -65 17 -27 51 -91 76 -142 39 -78 54 -97 98 -127 44 -31 59 -36 107 -36 47 0 63 5 104 34 68 49 89 85 89 160 0 55 -5 71 -52 158 -28 53 -70 127 -92 163 -22 36 -40 68 -40 71 0 10 -151 234 -181 269 l-30 34 1 1753 c0 1678 -1 1757 -19 1843 -38 184 -132 332 -281 442 -68 50 -104 69 -182 94 -65 20 -173 25 -198 9 -22 -15 24 -50 155 -116 172 -86 264 -166 322 -278 73 -144 67 23 73 -1941 5 -1676 6 -1772 23 -1816 10 -26 51 -97 90 -158 40 -61 83 -130 97 -153 14 -22 35 -56 47 -75 13 -18 45 -77 73 -130 72 -138 68 -212 -12 -213 -30 0 -80 54 -119 130 -73 143 -304 486 -408 606 -20 22 -65 74 -101 115 -133 152 -327 333 -550 510 -55 44 -310 211 -405 266 -226 131 -539 264 -775 329 -406 113 -686 154 -1054 154 -229 0 -358 -10 -621 -50 -72 -11 -317 -66 -405 -90 -365 -103 -702 -258 -1030 -476 -220 -145 -400 -292 -585 -478 -222 -223 -323 -345 -493 -598 -100 -149 -160 -255 -236 -413 -32 -66 -65 -133 -73 -150 -9 -16 -31 -73 -50 -125 -113 -316 -144 -422 -192 -665 -50 -250 -56 -337 -55 -735 1 -331 3 -377 23 -495 13 -71 27 -155 32 -185 16 -104 88 -365 139 -510 29 -80 60 -170 71 -200 29 -83 201 -424 261 -518 270 -424 579 -766 948 -1048 99 -76 238 -171 305 -208 17 -9 59 -35 95 -57 86 -53 343 -181 450 -224 70 -28 203 -73 397 -135 108 -35 387 -92 533 -109 154 -19 167 -19 365 -27 402 -14 817 42 1210 163 223 69 337 114 555 223 293 145 529 301 781 516 108 92 325 308 394 393 30 36 75 91 100 121 131 157 329 469 435 685 163 335 268 665 330 1044 77 463 66 914 -32 1391 -15 73 -9 121 17 150 35 38 85 14 114 -54 29 -67 62 -251 92 -517 15 -138 6 -697 -15 -864 -16 -131 -55 -335 -87 -454 -12 -42 -31 -114 -44 -161 -46 -169 -117 -351 -226 -579 -38 -79 -69 -145 -69 -147 0 -6 -202 -339 -215 -354 -32 -38 -77 -135 -82 -179 -6 -55 7 -87 73 -171 23 -30 630 -642 1349 -1360 909 -909 1319 -1325 1349 -1370 65 -99 81 -149 81 -260 0 -93 -17 -180 -39 -210 -7 -8 -18 -28 -26 -44 -17 -34 -80 -100 -130 -137 -128 -93 -338 -102 -494 -22 -65 34 -145 110 -991 953 -506 505 -941 931 -967 949 -56 37 -97 47 -128 31 -36 -19 -89 -82 -102 -120 -9 -25 -13 -206 -15 -635 -9 -1727 -6 -1562 -31 -1635 -66 -186 -202 -324 -372 -379 -115 -38 -223 -42 -947 -39 -685 3 -692 3 -720 24 -21 16 -28 30 -28 55 0 29 5 37 35 51 32 17 90 18 756 18 475 0 740 4 780 11 86 16 165 62 239 140 70 75 94 115 119 199 15 50 17 178 17 1343 l0 1288 -33 62 c-47 90 -388 432 -470 472 -56 26 -58 27 -105 11 -26 -9 -113 -57 -193 -107 -406 -256 -783 -421 -1192 -523 -79 -19 -174 -40 -212 -46 -38 -6 -73 -13 -77 -15 -24 -16 -375 -47 -574 -51 -399 -9 -775 32 -1100 122 -33 9 -73 20 -90 24 -38 10 -151 49 -280 95 -55 20 -112 40 -126 45 -14 4 -106 48 -205 97 -194 96 -395 213 -514 299 -41 30 -82 57 -90 61 -8 3 -26 16 -40 28 -14 12 -47 39 -75 60 -51 37 -259 221 -325 285 -57 56 -251 272 -297 331 -220 279 -399 579 -533 894 -146 340 -216 590 -282 999 -17 109 -22 190 -25 476 -4 240 -1 377 7 450 17 141 16 230 -4 268 -25 49 -92 100 -148 111 -28 7 -178 11 -356 11 -173 0 -323 4 -343 10 -42 12 -65 50 -49 80 27 50 29 50 427 50 226 0 392 4 422 11 64 13 131 71 165 142 14 29 39 95 55 147 17 52 42 127 55 165 42 118 31 174 -47 235 -63 50 -66 50 -560 50 -458 0 -465 0 -491 21 -36 29 -34 87 4 106 19 10 156 13 590 13 356 0 579 4 602 10 65 18 135 84 205 193 36 56 90 139 119 183 68 104 107 191 99 222 -7 30 -82 111 -115 125 -16 8 -173 13 -450 17 -385 4 -428 7 -453 23 -34 22 -36 65 -4 95 22 21 26 21 647 24 l625 3 60 31 c34 18 107 75 170 134 61 56 126 114 145 128 19 15 58 45 85 68 205 172 591 401 891 529 214 92 634 215 853 250 271 44 460 57 746 52 284 -5 423 -18 645 -58 290 -53 641 -159 858 -260 415 -193 706 -378 996 -634 104 -91 202 -155 238 -155 42 0 125 80 139 134 8 28 11 470 11 1506 l0 1465 -27 75 c-32 88 -65 137 -132 201 -58 55 -99 80 -178 105 -59 19 -152 19 -4235 19 l-4175 0 -60 -23 c-119 -47 -228 -146 -271 -248 -47 -110 -47 -116 -53 -640 -6 -475 -7 -503 -25 -523 -24 -27 -68 -27 -92 0 -18 20 -19 44 -19 568 l0 546 23 65 c63 175 176 288 379 380 68 31 162 90 163 101 1 24 -147 24 -220 0z"/> <path d="M2100 13650 c-122 -48 -168 -183 -97 -291 20 -32 46 -57 73 -69 39 -20 67 -20 1354 -20 l1314 0 44 21 c112 55 142 215 56 303 -70 72 46 67 -1400 69 -1140 2 -1310 0 -1344 -13z m2605 -130 c26 -13 30 -21 30 -54 0 -34 -4 -41 -35 -57 -34 -19 -78 -19 -1282 -17 l-1246 3 -26 24 c-30 28 -34 72 -9 92 9 8 43 17 77 20 34 4 601 6 1261 5 1050 -1 1204 -3 1230 -16z"/> <path d="M582 13009 c-47 -14 -107 -80 -121 -133 -8 -33 -11 -1425 -11 -5183 1 -5428 -1 -5217 43 -5353 17 -52 68 -150 105 -200 87 -119 240 -219 412 -271 37 -11 577 -14 3103 -16 l3058 -3 53 35 c124 82 122 251 -4 330 l-40 25 -3029 0 c-2777 0 -3033 1 -3068 16 -105 45 -137 71 -192 154 l-36 55 -5 5200 c-3 2860 -10 5212 -14 5228 -5 15 -30 47 -57 71 -61 55 -117 68 -197 45z m117 -173 l21 -33 0 -5107 c0 -3744 3 -5119 11 -5154 36 -148 62 -202 137 -279 50 -50 107 -89 173 -116 l54 -22 3010 -5 c1656 -3 3017 -9 3027 -13 24 -12 44 -66 31 -86 -30 -49 148 -46 -3023 -49 -3134 -3 -3044 -4 -3170 41 -171 60 -311 206 -365 381 l-25 81 2 5176 c3 5075 3 5177 22 5198 30 33 70 27 95 -13z"/> <path d="M6585 12000 c-251 -27 -453 -65 -590 -112 -16 -5 -43 -13 -60 -18 -97 -27 -419 -157 -500 -202 -42 -24 -51 -28 -80 -43 -35 -17 -98 -53 -140 -80 -102 -64 -227 -148 -237 -158 -7 -7 -44 -37 -83 -67 -191 -148 -418 -379 -566 -575 -50 -65 -191 -273 -202 -296 -4 -8 -21 -36 -37 -64 -47 -79 -144 -280 -184 -385 -10 -25 -23 -54 -28 -64 -47 -90 -143 -476 -183 -739 -24 -152 -24 -701 -1 -800 9 -38 16 -85 16 -106 0 -21 7 -60 15 -87 8 -27 15 -60 15 -73 0 -13 6 -47 14 -75 8 -28 22 -80 32 -116 31 -119 86 -290 95 -296 5 -3 9 -14 9 -24 0 -10 7 -31 14 -47 8 -15 31 -64 52 -108 52 -115 123 -253 150 -297 13 -21 24 -40 24 -44 0 -3 14 -23 30 -44 17 -21 30 -40 30 -43 0 -8 83 -129 138 -202 160 -211 418 -465 659 -648 34 -26 64 -47 67 -47 2 0 34 -20 70 -45 37 -25 68 -45 71 -45 2 0 23 -12 47 -27 66 -43 77 -49 168 -96 47 -25 126 -62 175 -83 50 -20 99 -44 110 -51 11 -7 29 -13 40 -13 12 0 30 -7 41 -15 10 -8 28 -15 40 -15 11 0 24 -4 30 -9 5 -6 27 -14 49 -20 22 -5 77 -21 121 -34 72 -21 266 -61 479 -98 40 -7 197 -14 365 -17 238 -3 316 0 405 13 312 46 611 117 760 180 17 7 71 30 120 50 101 42 314 146 360 175 17 11 37 23 45 28 97 50 365 248 507 375 133 118 314 315 420 457 78 104 143 197 143 205 0 2 13 23 29 47 48 73 160 284 208 393 26 60 76 195 104 285 12 36 27 81 34 100 18 49 35 117 44 170 4 25 10 50 14 56 6 11 11 37 36 207 52 340 38 854 -31 1132 -5 22 -13 63 -18 91 -4 28 -13 61 -19 72 -6 11 -11 30 -11 41 0 11 -6 35 -14 53 -8 18 -26 71 -41 118 -52 162 -164 419 -238 545 -7 11 -25 43 -41 70 -131 224 -291 429 -496 635 -213 215 -397 356 -690 529 -50 29 -287 144 -340 165 -25 10 -58 24 -73 32 -16 8 -36 14 -45 14 -9 0 -26 7 -36 15 -11 8 -28 15 -38 15 -9 0 -32 6 -50 14 -72 30 -97 37 -238 71 -212 51 -590 95 -795 93 -66 0 -196 -9 -290 -18z m715 -135 c136 -20 346 -62 435 -87 39 -11 90 -26 115 -33 25 -7 56 -17 70 -23 14 -6 75 -29 135 -53 112 -43 357 -161 430 -207 146 -92 274 -180 365 -252 113 -90 386 -359 450 -444 21 -28 56 -73 77 -101 105 -135 279 -417 302 -487 7 -20 19 -42 27 -48 7 -7 14 -18 14 -26 0 -7 22 -64 49 -126 74 -171 137 -371 166 -533 54 -294 60 -361 59 -665 0 -227 -4 -320 -17 -405 -38 -246 -87 -448 -152 -630 -46 -128 -205 -463 -268 -561 -17 -28 -47 -76 -65 -105 -114 -186 -346 -453 -537 -619 -503 -437 -1105 -694 -1780 -760 -238 -24 -686 1 -890 49 -22 5 -65 14 -95 20 -96 19 -303 84 -445 138 -222 85 -584 290 -745 422 -25 20 -63 49 -85 66 -22 16 -113 101 -203 189 -266 262 -429 487 -597 826 -148 297 -229 548 -284 880 -31 188 -37 318 -30 615 9 309 30 465 96 700 142 506 381 934 731 1310 66 72 127 135 135 140 8 6 63 52 122 103 60 52 140 115 179 142 40 26 78 55 85 64 7 9 19 16 26 16 6 0 30 13 51 28 45 32 250 152 260 152 4 0 34 13 68 29 116 54 151 70 191 85 22 7 78 28 125 45 180 66 556 144 780 162 137 11 527 1 650 -16z"/> <path d="M6725 11744 c-128 -10 -335 -36 -390 -49 -204 -48 -250 -61 -345 -92 -669 -223 -1189 -628 -1593 -1244 -64 -98 -187 -324 -187 -345 0 -4 -15 -39 -34 -78 -38 -81 -74 -185 -130 -376 -32 -109 -71 -322 -86 -475 -20 -191 -7 -604 23 -775 46 -256 113 -486 199 -685 41 -95 174 -344 228 -425 145 -220 209 -298 415 -505 174 -175 312 -285 526 -421 96 -61 113 -71 219 -124 255 -128 550 -229 780 -265 47 -8 111 -19 143 -24 32 -6 102 -13 155 -16 53 -3 131 -7 172 -11 88 -6 403 10 487 25 32 6 94 18 138 26 44 9 106 20 138 26 77 13 361 108 467 156 271 122 532 281 706 429 49 41 112 95 141 120 73 62 282 299 384 435 73 98 116 165 212 334 46 81 138 278 160 345 14 41 37 107 51 146 14 39 39 124 55 190 119 482 122 944 7 1434 -17 74 -111 352 -151 450 -157 382 -449 777 -800 1084 -77 68 -271 213 -310 233 -16 8 -39 23 -50 32 -24 21 -173 106 -270 154 -84 41 -350 145 -430 167 -16 5 -57 16 -90 25 -33 10 -78 21 -100 26 -22 4 -60 13 -85 18 -166 38 -584 68 -755 55z m405 -129 c256 -27 534 -84 670 -136 30 -11 64 -23 75 -26 19 -5 33 -10 115 -46 19 -9 62 -28 95 -42 147 -65 250 -124 422 -239 281 -189 552 -465 747 -761 51 -77 96 -147 100 -155 3 -8 16 -31 27 -50 26 -42 89 -166 89 -174 0 -3 14 -36 31 -73 53 -119 59 -133 59 -151 0 -10 6 -26 14 -37 7 -11 16 -31 19 -45 3 -14 10 -38 15 -55 11 -32 34 -114 51 -180 40 -160 71 -449 71 -654 0 -211 -30 -492 -71 -656 -17 -66 -40 -148 -51 -180 -5 -16 -12 -41 -15 -55 -3 -14 -12 -34 -19 -45 -8 -11 -14 -28 -14 -37 0 -10 -4 -26 -10 -36 -5 -9 -28 -62 -51 -117 -35 -86 -88 -192 -148 -298 -41 -72 -168 -263 -189 -285 -9 -10 -33 -38 -51 -62 -199 -259 -494 -513 -799 -688 -55 -32 -199 -103 -313 -156 -164 -75 -484 -161 -734 -198 -120 -17 -619 -17 -735 0 -221 34 -474 98 -640 162 -30 12 -64 24 -74 27 -30 10 -317 154 -361 182 -57 37 -78 49 -95 57 -32 16 -248 181 -325 249 -333 292 -555 599 -753 1035 -16 36 -49 130 -74 210 -67 213 -78 254 -78 282 0 14 -7 45 -15 68 -8 23 -15 57 -15 76 0 18 -7 66 -16 106 -11 56 -15 138 -16 346 0 277 11 405 48 553 8 30 14 66 14 78 0 13 7 44 15 70 8 25 36 114 61 196 26 83 58 175 71 205 110 251 280 535 417 695 28 33 60 71 71 84 70 85 283 286 395 371 25 19 47 37 50 41 3 3 55 38 115 77 61 40 115 75 121 79 48 35 372 193 396 193 5 0 22 6 36 14 123 64 441 143 672 166 52 5 122 14 155 19 97 14 269 12 425 -4z"/> <path d="M9789 6144 c-118 -80 -264 -248 -276 -317 -3 -23 2 -49 14 -78 26 -57 155 -202 326 -363 211 -201 247 -219 339 -169 69 37 235 203 271 271 57 109 39 140 -233 413 -118 120 -237 231 -264 248 -68 42 -109 41 -177 -5z m135 -88 c29 -38 324 -336 424 -428 34 -32 62 -62 62 -67 0 -6 -10 -17 -22 -26 -33 -22 -218 -206 -229 -227 -5 -10 -18 -18 -27 -18 -23 0 -532 508 -532 531 0 10 8 20 18 23 22 7 168 148 211 204 18 23 41 42 51 42 10 0 29 -16 44 -34z"/> <path d="M10638 5366 c-81 -29 -260 -207 -305 -304 -30 -63 -27 -83 24 -161 50 -77 1829 -1856 1903 -1903 84 -53 111 -61 195 -56 67 4 82 9 131 43 105 72 171 197 158 300 -7 55 -18 79 -65 152 -18 26 -446 463 -953 970 -796 797 -928 925 -976 947 -63 30 -63 30 -112 12z m88 -113 c16 -21 447 -456 959 -968 914 -913 931 -931 942 -981 38 -165 -131 -309 -275 -235 -21 11 -341 324 -722 706 -377 377 -808 808 -957 957 -150 149 -273 272 -273 274 0 8 277 282 286 283 7 0 24 -16 40 -36z"/> <path d="M2082 4020 c-77 -43 -112 -100 -112 -182 1 -66 31 -122 86 -160 l39 -27 1333 -1 1332 0 39 24 c138 88 125 266 -26 349 -29 16 -117 17 -1345 16 -1261 0 -1314 -1 -1346 -19z m2621 -123 c34 -22 41 -39 33 -72 -15 -59 62 -56 -1306 -55 -921 0 -1258 3 -1273 12 -79 41 -54 113 43 128 30 4 600 7 1265 6 1150 -1 1212 -2 1238 -19z"/> </g> </svg> 