 <svg  version="1.0" xmlns="http://www.w3.org/2000/svg"  width="300.000000pt" height="300.000000pt" viewBox="0 0 300.000000 300.000000"  preserveAspectRatio="xMidYMid meet">  <g transform="translate(0.000000,300.000000) scale(0.050000,-0.050000)" fill="#ffffff" stroke="none"> <path d="M2591 5968 c-797 -124 -1249 -603 -1429 -1518 -44 -218 -60 -343 -123 -930 -77 -712 -153 -957 -360 -1156 l-102 -97 85 -76 c150 -136 512 -278 894 -352 70 -14 119 -32 110 -40 -27 -27 -589 -261 -726 -303 -451 -140 -546 -311 -557 -1011 l-7 -485 2624 0 2624 0 -7 485 c-11 700 -106 871 -557 1011 -137 42 -699 276 -726 303 -9 8 40 26 110 40 381 73 744 216 894 351 l83 76 -100 96 c-211 204 -288 466 -371 1258 -106 1013 -214 1397 -499 1775 -357 473 -1076 695 -1860 573z m779 -250 c170 -24 370 -77 370 -99 0 -35 -336 -432 -530 -626 -578 -582 -1198 -936 -1786 -1021 l-87 -13 14 116 c152 1299 786 1815 2019 1643z m730 -312 c232 -209 416 -564 487 -944 l13 -67 -100 13 c-225 30 -614 193 -891 374 l-150 98 180 209 c99 116 213 255 254 310 91 122 79 122 207 7z m-653 -814 c210 -139 479 -273 690 -344 212 -71 212 -70 211 -468 -1 -810 -732 -1770 -1348 -1770 -538 0 -1287 885 -1352 1595 l-13 152 87 22 c424 105 915 379 1352 751 234 200 178 191 373 62z m1201 -518 c7 -37 26 -197 43 -355 84 -810 157 -1138 302 -1351 27 -40 46 -75 43 -78 -131 -112 -1009 -314 -1086 -250 -72 60 -38 194 81 327 428 472 642 1119 558 1682 -17 113 38 135 59 25z m-3260 -379 c4 -14 18 -104 30 -201 49 -371 264 -810 552 -1129 118 -131 152 -265 80 -325 -77 -64 -955 138 -1086 250 -3 3 16 38 43 78 121 178 207 508 263 1002 39 351 39 350 80 350 17 0 34 -11 38 -25z m1040 -1736 c391 -263 810 -259 1167 13 37 29 70 49 73 45 3 -4 25 -40 49 -80 109 -181 696 -497 1245 -669 345 -108 398 -199 398 -684 l0 -344 -2360 0 -2360 0 0 344 c0 485 53 576 398 684 562 176 1155 499 1253 681 46 85 28 84 137 10z"/> </g> </svg> 