 <svg  version="1.0" xmlns="http://www.w3.org/2000/svg"  width="300.000000pt" height="300.000000pt" viewBox="0 0 300.000000 300.000000"  preserveAspectRatio="xMidYMid meet">  <g transform="translate(0.000000,300.000000) scale(0.100000,-0.100000)" fill="#ffffff" stroke="none"> <path d="M1335 2943 c-110 -15 -234 -73 -295 -139 -22 -24 -58 -55 -78 -68 -82 -51 -153 -145 -188 -246 -16 -46 -19 -84 -19 -235 0 -112 4 -192 12 -212 9 -25 8 -40 -4 -75 -10 -29 -14 -66 -11 -115 7 -99 44 -175 106 -214 40 -25 48 -36 67 -96 28 -87 67 -165 116 -229 39 -51 39 -51 39 -145 0 -115 -17 -157 -86 -218 -90 -79 -234 -141 -479 -207 -162 -44 -263 -92 -331 -160 -92 -92 -134 -215 -134 -396 0 -95 1 -98 23 -98 61 1 67 8 67 79 1 223 63 347 210 421 33 17 118 46 188 65 70 18 159 45 197 58 l70 24 65 -59 c185 -170 388 -251 630 -251 242 0 445 81 630 251 l65 59 70 -24 c38 -13 127 -40 197 -58 260 -70 351 -149 384 -334 7 -42 13 -114 14 -162 0 -89 8 -109 45 -109 39 0 45 19 45 129 0 191 -41 311 -136 406 -69 70 -160 113 -344 163 -304 84 -477 177 -529 285 -17 34 -21 62 -21 136 l0 92 44 62 c56 80 79 126 105 213 19 61 26 72 58 89 71 39 114 125 115 236 0 37 -5 83 -12 104 -9 29 -10 50 0 97 6 33 11 121 11 196 1 145 -18 247 -59 329 -19 37 -19 39 -1 78 20 43 25 149 9 175 -7 12 -40 16 -147 21 -116 5 -153 11 -233 37 -52 17 -122 35 -154 41 -56 10 -256 13 -321 4z m298 -94 c40 -6 101 -22 137 -34 85 -31 167 -45 257 -45 72 0 73 -1 73 -25 0 -14 -9 -43 -20 -65 -26 -50 -26 -51 10 -124 17 -33 37 -92 45 -131 22 -106 18 -355 -6 -355 -5 0 -21 23 -37 51 -50 95 -117 187 -156 218 -71 56 -158 71 -286 50 -36 -6 -110 -11 -165 -11 -114 0 -179 19 -260 76 -63 46 -81 38 -117 -47 -56 -132 -141 -256 -209 -302 -21 -16 -41 -26 -44 -23 -11 10 -16 258 -7 314 19 112 91 223 173 264 21 11 50 35 64 55 89 115 313 170 548 134z m-309 -554 c72 -21 189 -23 331 -6 61 8 127 11 147 7 63 -12 108 -55 175 -169 61 -102 109 -157 139 -157 31 0 45 -105 24 -182 -12 -40 -70 -98 -100 -98 -24 0 -25 -2 -56 -106 -49 -172 -122 -267 -275 -359 l-83 -50 -104 -3 c-124 -5 -161 4 -257 64 -135 83 -206 182 -259 356 -25 81 -29 87 -61 98 -75 25 -111 100 -103 214 3 48 5 51 53 79 97 56 199 176 269 315 l26 52 38 -19 c21 -11 64 -27 96 -36z m-70 -1155 c58 -40 142 -60 246 -60 110 0 188 21 267 71 l63 39 0 -72 c0 -55 6 -85 23 -123 27 -57 112 -140 187 -182 28 -15 50 -33 50 -39 0 -20 -153 -133 -235 -174 -202 -100 -452 -107 -666 -20 -72 29 -177 96 -248 158 l-44 39 56 32 c83 47 166 128 194 186 17 38 23 68 23 123 0 82 -4 81 84 22z"/> </g> </svg> 