 <svg  version="1.0" xmlns="http://www.w3.org/2000/svg"  width="300.000000pt" height="300.000000pt" viewBox="0 0 300.000000 300.000000"  preserveAspectRatio="xMidYMid meet">  <g transform="translate(0.000000,300.000000) scale(0.100000,-0.100000)" fill="#ebebeb" stroke="none"> <path d="M2520 2909 c-242 -82 -257 -88 -264 -105 -9 -24 12 -54 39 -54 13 0 120 31 236 70 117 38 213 69 214 67 1 -1 9 -23 18 -49 l16 -48 -67 -20 c-37 -11 -349 -105 -695 -208 l-627 -189 6 36 c4 20 7 37 8 38 0 0 161 54 356 118 364 120 401 137 380 175 -5 10 -16 20 -24 23 -7 3 -172 -47 -366 -111 -242 -80 -354 -112 -359 -104 -12 20 -54 30 -91 20 -69 -19 -100 -39 -108 -70 -6 -24 -17 -34 -53 -48 -44 -16 -47 -16 -68 2 -29 22 -53 23 -117 2 -61 -21 -72 -29 -88 -68 -10 -25 -24 -35 -63 -47 -47 -15 -51 -15 -72 2 -29 24 -53 24 -116 1 -67 -23 -75 -29 -91 -67 -10 -26 -24 -36 -60 -49 -44 -15 -47 -14 -74 6 -32 24 -63 21 -135 -11 -34 -15 -46 -27 -52 -52 -8 -27 -16 -34 -61 -48 -69 -21 -102 -52 -102 -98 0 -37 23 -89 42 -95 8 -3 11 -23 9 -59 -2 -49 1 -57 28 -83 29 -28 33 -29 94 -22 75 7 73 9 83 -87 6 -63 -1 -92 -62 -249 l-19 -48 -87 0 c-82 0 -88 -2 -107 -26 -23 -29 -23 -34 5 -199 58 -340 250 -657 520 -860 73 -55 74 -57 74 -101 0 -55 19 -101 55 -134 l27 -25 614 -3 c679 -3 654 -5 694 61 14 22 20 50 20 88 l0 55 61 43 c286 202 482 532 549 924 21 125 18 146 -20 167 -12 6 -238 10 -648 10 l-630 0 24 58 c46 115 53 254 17 382 -8 30 -20 61 -25 68 -6 7 -9 14 -7 15 2 2 83 13 179 25 215 26 589 73 895 112 127 16 295 37 375 47 182 22 194 30 192 123 -4 144 -36 180 -146 161 -67 -11 -92 -15 -626 -96 -201 -31 -439 -67 -530 -81 -91 -14 -208 -32 -260 -40 -52 -8 -101 -16 -107 -19 -20 -7 -15 34 10 89 l22 49 380 114 c209 63 538 162 730 219 375 112 395 122 395 183 0 37 -36 140 -57 163 -28 31 -94 21 -283 -43z m-1150 -394 c35 -18 36 -22 14 -46 -16 -17 -18 -16 -40 17 -13 19 -24 37 -24 39 0 9 21 5 50 -10z m-54 -70 c-3 -25 -25 -94 -48 -153 -41 -103 -43 -111 -42 -212 0 -99 2 -110 37 -186 48 -106 60 -168 55 -273 -6 -116 -51 -234 -92 -239 -14 -2 -26 -1 -26 1 0 3 15 38 33 78 30 70 32 80 32 194 0 117 -1 122 -38 202 -72 158 -73 292 -2 457 20 44 38 97 41 117 5 32 25 53 53 58 2 1 1 -19 -3 -44z m-91 -17 c-12 -45 -28 -78 -35 -78 -11 0 -43 51 -36 57 11 11 61 42 69 42 5 1 5 -9 2 -21z m-170 -15 l35 -17 -21 -22 -22 -23 -22 32 c-19 28 -23 47 -10 47 2 0 20 -8 40 -17z m-71 -90 c-52 -115 -57 -136 -58 -233 0 -90 2 -101 44 -205 45 -110 45 -110 45 -235 0 -117 -2 -129 -30 -195 -26 -60 -34 -70 -58 -73 -15 -2 -27 -1 -27 1 0 3 13 33 30 68 62 134 60 260 -6 415 -38 88 -39 91 -38 219 0 120 2 135 28 198 27 64 55 97 83 97 9 0 5 -18 -13 -57z m388 40 c25 -22 23 -28 -17 -52 -39 -23 -39 -23 -23 30 13 44 15 45 40 22z m-222 -8 c0 -4 -7 -19 -15 -34 -14 -28 -75 -60 -75 -40 0 21 31 68 47 72 27 7 43 8 43 2z m-279 -71 l-21 -47 -25 23 c-14 13 -23 26 -20 29 10 9 80 48 83 45 2 -1 -6 -24 -17 -50z m-143 13 l23 -13 -26 -24 c-14 -13 -26 -22 -28 -19 -12 17 -37 59 -37 64 0 10 45 4 68 -8z m314 -32 c24 -30 43 -31 86 -5 36 22 36 21 21 -32 -11 -43 -19 -46 -45 -17 -21 23 -53 20 -96 -12 -23 -16 -28 -17 -28 -5 0 19 30 96 37 96 3 0 14 -11 25 -25z m1862 -6 c13 -65 9 -79 -23 -79 -27 0 -461 -53 -661 -80 -41 -6 -165 -21 -275 -35 -110 -13 -289 -36 -398 -50 -250 -32 -237 -32 -237 5 0 17 2 30 5 30 2 0 93 14 202 30 109 17 257 39 328 50 72 11 157 25 190 30 33 6 222 35 420 64 198 30 371 57 385 59 53 9 57 7 64 -24z m-2261 -48 c-11 -38 -14 -81 -11 -150 4 -84 8 -106 41 -176 66 -147 70 -295 10 -439 -24 -59 -29 -66 -55 -66 l-28 0 26 58 c75 165 73 262 -12 462 -20 49 -28 87 -32 156 -6 121 10 189 46 202 15 5 28 9 29 8 1 -1 -5 -26 -14 -55z m162 12 c-4 -16 -7 -28 -8 -29 -9 -6 -71 -23 -73 -21 -12 11 14 51 40 63 44 19 49 17 41 -13z m-260 -43 l-7 -42 -25 24 -24 23 27 22 c16 12 30 20 32 18 2 -2 1 -22 -3 -45z m2419 3 c-20 -31 -34 -27 -21 6 8 21 15 27 21 21 7 -7 7 -16 0 -27z m-2579 5 c14 -6 25 -17 25 -23 0 -13 -28 -41 -33 -34 -37 48 -47 69 -33 69 8 0 27 -5 41 -12z m447 -80 c-5 -5 -16 0 -27 12 -18 20 -18 21 6 46 l24 26 3 -37 c2 -21 -1 -42 -6 -47z m260 37 c-2 -25 -7 -45 -12 -45 -4 0 -22 -3 -39 -6 -32 -7 -32 -7 -29 32 2 29 9 42 28 51 46 23 56 18 52 -32z m-384 -32 c-30 -32 -38 -29 -38 15 0 50 8 57 37 30 l23 -22 -22 -23z m-327 -243 c65 -161 66 -288 2 -432 -21 -47 -30 -58 -49 -58 -13 0 -24 2 -24 6 0 3 14 37 32 77 30 67 32 79 33 187 0 113 -1 117 -44 220 -36 85 -44 119 -49 187 -5 80 -4 83 19 91 24 9 24 9 31 -82 5 -75 14 -110 49 -196z m119 266 c0 -18 -27 -46 -45 -46 -7 0 -21 -3 -30 -6 -13 -5 -16 -2 -13 16 2 16 14 27 38 36 46 17 50 17 50 0z m810 -39 c0 -13 -30 -47 -42 -47 -10 0 -11 74 -1 83 8 8 43 -22 43 -36z m-1070 -7 c0 -45 -8 -49 -35 -20 -17 19 -17 21 0 40 27 29 35 25 35 -20z m300 -37 c0 -27 4 -65 9 -85 9 -40 2 -48 -19 -23 -20 24 -66 19 -88 -10 -11 -14 -22 -25 -26 -25 -13 0 -36 62 -42 114 -7 57 2 70 26 41 19 -23 65 -18 97 10 15 13 31 25 36 25 4 0 7 -21 7 -47z m250 22 c0 -20 -5 -25 -24 -25 -13 0 -31 -3 -40 -6 -11 -4 -16 0 -16 14 0 13 10 24 28 30 43 16 52 14 52 -13z m340 -16 c0 -42 -14 -49 -34 -16 -8 12 -5 21 8 36 11 12 21 21 23 21 1 0 3 -18 3 -41z m-132 -36 l-23 -24 -8 32 c-4 17 -6 38 -2 47 5 12 10 11 30 -8 l25 -24 -22 -23z m-798 8 c0 -13 -9 -21 -30 -26 -54 -12 -69 16 -17 33 46 14 47 14 47 -7z m640 -23 l0 -41 -25 23 c-23 22 -24 25 -8 42 25 28 33 22 33 -24z m-132 12 c22 -18 22 -20 6 -45 -20 -31 -32 -22 -41 28 -6 41 1 45 35 17z m-459 -37 c5 -21 13 -51 17 -68 l7 -29 -26 17 c-35 22 -60 22 -82 -3 -23 -26 -35 -25 -35 1 0 12 -9 37 -21 55 -22 36 -17 44 12 18 23 -21 62 -12 92 20 12 13 23 24 24 25 1 1 7 -16 12 -36z m845 5 c5 -23 3 -27 -25 -33 -33 -8 -49 4 -49 37 0 12 10 18 33 20 17 2 32 3 33 3 1 0 4 -12 8 -27z m255 -45 c6 -4 -30 -43 -39 -43 -9 0 -30 46 -30 65 0 13 21 6 69 -22z m-545 11 c11 -28 7 -34 -24 -34 -32 0 -61 34 -37 43 25 11 55 6 61 -9z m350 -16 c12 -45 8 -50 -25 -33 -30 16 -30 17 -13 36 22 25 30 24 38 -3z m-122 -16 c35 -18 35 -19 19 -41 -19 -25 -31 -18 -50 32 -12 32 -14 32 31 9z m-514 -20 c3 -18 -2 -22 -22 -22 -15 0 -30 8 -36 19 -8 16 -6 20 13 24 33 6 42 2 45 -21z m357 -21 c6 -21 5 -23 -11 -16 -11 4 -27 9 -36 12 -16 5 -16 7 -1 30 13 20 18 22 28 11 7 -7 16 -24 20 -37z m-95 -12 c0 -3 -9 -14 -20 -24 -19 -17 -20 -17 -35 18 -8 20 -15 39 -15 41 0 8 69 -28 70 -35z m-195 -6 c8 -20 14 -38 12 -40 -2 -2 -18 4 -35 13 -31 15 -32 22 -9 52 14 17 15 16 32 -25z m-345 2 c0 -8 -9 -15 -19 -15 -11 0 -26 -3 -35 -6 -12 -4 -16 0 -16 15 0 17 6 21 35 21 24 0 35 -5 35 -15z m244 -19 c18 -6 18 -7 1 -26 -24 -27 -31 -25 -44 11 -15 45 -14 54 7 37 9 -8 25 -18 36 -22z m668 -33 c41 -90 48 -186 20 -263 -60 -164 -63 -170 -94 -170 -25 0 -29 3 -23 18 52 135 67 263 42 372 -8 36 -17 73 -21 82 -6 12 -2 18 16 21 13 2 24 5 26 6 2 0 17 -29 34 -66z m-849 12 c22 -47 22 -50 -8 -31 -13 9 -31 16 -40 16 -14 0 -14 3 1 25 21 33 27 32 47 -10z m567 -55 c32 -101 26 -178 -25 -297 -37 -87 -41 -93 -68 -93 -24 0 -28 3 -22 18 43 97 49 130 50 247 0 66 -4 137 -9 158 -8 36 -8 37 22 37 28 0 31 -4 52 -70z m-290 -15 c22 -78 8 -197 -34 -290 -32 -72 -38 -80 -65 -83 l-30 -3 20 47 c41 93 53 211 33 341 -4 28 -2 32 23 35 38 5 39 5 53 -47z m291 -416 c-45 -9 -53 0 -30 33 l21 29 18 -28 c17 -28 17 -28 -9 -34z m-571 9 c0 -4 -16 -8 -35 -8 -39 0 -42 5 -18 32 15 17 17 17 35 2 10 -10 18 -21 18 -26z m134 20 c14 -19 14 -23 1 -30 -8 -5 -25 -6 -39 -2 -24 6 -24 7 -9 30 19 30 28 30 47 2z m166 -20 c0 -4 -19 -8 -42 -8 l-41 0 23 25 c22 23 25 24 42 8 10 -9 18 -20 18 -25z m134 17 l16 -25 -40 0 c-44 0 -48 5 -23 32 21 24 28 23 47 -7z m299 0 l18 -25 -47 0 -47 0 23 25 c29 31 31 31 53 0z m157 -17 c0 -4 -16 -8 -35 -8 -39 0 -42 5 -18 32 15 17 17 17 35 2 10 -10 18 -21 18 -26z m132 25 c27 -25 22 -33 -22 -33 l-41 0 18 25 c22 29 22 29 45 8z m-1259 -73 c-17 -30 -18 -30 -27 -10 -10 22 4 40 32 40 10 0 8 -8 -5 -30z m2545 11 c3 -8 -1 -12 -9 -9 -7 2 -15 10 -17 17 -3 8 1 12 9 9 7 -2 15 -10 17 -17z m-44 -51 c-68 -405 -235 -698 -518 -907 l-58 -43 -455 0 c-294 0 -461 -4 -474 -10 -25 -14 -25 -56 0 -70 13 -6 174 -10 455 -10 l436 0 0 -33 c0 -18 -6 -42 -14 -53 -14 -18 -33 -19 -593 -21 -452 -2 -583 0 -603 10 -20 10 -26 21 -28 55 l-3 42 86 0 c98 0 125 10 125 45 0 36 -28 45 -145 45 l-106 0 -73 55 c-195 147 -355 371 -436 613 -26 78 -70 269 -70 304 0 11 209 13 1240 13 l1240 0 -6 -35z m-1861 -997 c9 -5 -21 -43 -33 -43 -4 0 -10 8 -14 18 -3 9 -9 23 -12 30 -4 10 1 11 23 6 15 -4 32 -9 36 -11z m1300 -14 c-14 -29 -16 -30 -34 -13 -24 22 -13 33 43 43 3 0 0 -13 -9 -30z"/> </g> </svg> 