 <svg  version="1.0" xmlns="http://www.w3.org/2000/svg"  width="288.000000pt" height="288.000000pt" viewBox="0 0 288.000000 288.000000"  preserveAspectRatio="xMidYMid meet">  <g transform="translate(0.000000,288.000000) scale(0.100000,-0.100000)" fill="#fafafa" stroke="none"> <path d="M555 2492 c-100 -43 -149 -93 -188 -190 -16 -39 -17 -113 -17 -872 0 -759 1 -833 17 -872 39 -97 88 -147 188 -190 37 -15 108 -17 870 -17 958 -1 888 -8 990 94 102 102 95 33 95 987 0 754 -2 831 -17 870 -36 92 -99 154 -191 191 -39 16 -113 17 -875 16 -764 0 -835 -2 -872 -17z m1715 -93 c54 -24 96 -65 122 -117 l23 -47 3 -755 c1 -504 -1 -776 -8 -819 -18 -107 -57 -163 -135 -198 -37 -16 -98 -18 -772 -21 -402 -1 -771 1 -820 6 -110 12 -159 40 -206 122 l-32 55 1 790 c1 436 5 806 10 825 23 86 101 156 189 171 22 3 389 5 815 4 676 -1 779 -3 810 -16z"/> <path d="M927 2061 c-84 -56 -147 -140 -147 -198 0 -43 61 -125 198 -264 122 -124 142 -146 142 -162 0 -4 -66 -77 -147 -162 -108 -113 -155 -171 -175 -213 -15 -31 -27 -64 -28 -73 0 -9 17 -43 39 -76 41 -64 144 -143 185 -143 34 0 116 45 161 88 22 21 76 75 120 121 85 89 153 136 182 127 10 -3 83 -70 163 -147 150 -147 183 -169 248 -169 68 0 171 89 213 182 9 21 9 37 -1 72 -14 51 -61 109 -204 254 -50 50 -95 101 -100 111 -18 40 6 76 129 201 133 135 182 209 170 258 -17 74 -132 188 -207 207 -43 11 -133 -43 -228 -138 -47 -46 -109 -105 -139 -130 l-54 -46 -36 19 c-33 18 -79 59 -191 175 -82 84 -177 145 -230 145 -3 0 -31 -18 -63 -39z m128 -60 c20 -22 114 -118 210 -215 156 -159 195 -193 195 -168 0 5 73 82 161 173 89 90 173 179 187 197 13 17 30 32 38 32 17 0 174 -157 174 -175 0 -8 -10 -21 -21 -29 -12 -8 -100 -91 -196 -185 -95 -94 -178 -171 -183 -171 -6 0 -10 -5 -10 -11 0 -12 370 -381 408 -406 12 -8 22 -19 22 -23 0 -4 -40 -48 -89 -98 l-89 -91 -34 35 c-18 19 -108 112 -200 206 -93 94 -168 175 -168 179 0 31 -54 -14 -220 -183 -104 -106 -199 -206 -213 -222 l-24 -28 -93 92 -92 92 53 47 c112 98 389 378 389 393 0 9 -10 23 -23 31 -13 8 -106 96 -207 196 -102 100 -188 181 -192 181 -22 0 -1 29 67 95 41 40 75 78 75 84 0 24 41 9 75 -28z"/> </g> </svg> 