 <svg  version="1.0" xmlns="http://www.w3.org/2000/svg"  width="96.000000pt" height="96.000000pt" viewBox="0 0 96.000000 96.000000"  preserveAspectRatio="xMidYMid meet">  <g transform="translate(0.000000,96.000000) scale(0.100000,-0.100000)" fill="#151414" stroke="none"> <path d="M0 480 l0 -480 480 0 480 0 0 480 0 480 -480 0 -480 0 0 -480z m789 346 c48 -25 51 -45 51 -346 0 -301 -3 -321 -51 -346 -37 -19 -573 -21 -614 -2 -52 24 -55 43 -55 350 1 302 3 317 51 344 36 20 579 20 618 0z"/> <path d="M193 810 c-50 -20 -52 -36 -52 -328 0 -178 3 -281 11 -297 18 -41 53 -45 345 -43 l275 3 23 27 c24 28 24 29 25 308 l1 281 -30 30 -29 29 -274 -1 c-150 0 -283 -4 -295 -9z m221 -170 c35 -33 67 -60 72 -60 5 0 34 25 64 55 30 30 62 55 71 55 22 0 69 -48 69 -72 0 -11 -18 -36 -40 -55 -22 -20 -47 -47 -56 -60 -15 -24 -14 -26 45 -88 34 -35 61 -69 61 -75 0 -18 -57 -70 -76 -70 -10 0 -47 28 -81 62 l-62 62 -58 -58 c-76 -76 -85 -80 -117 -55 -55 43 -53 53 20 129 l67 70 -67 71 c-58 61 -65 73 -55 87 31 41 54 62 67 62 7 0 42 -27 76 -60z"/> <path d="M307 653 l-27 -28 72 -72 72 -73 -72 -73 -72 -72 27 -28 28 -27 72 72 73 72 73 -71 72 -72 29 30 30 30 -72 72 -72 72 67 68 68 67 -28 27 -27 28 -68 -68 -68 -67 -69 70 c-38 38 -72 70 -75 70 -3 0 -18 -12 -33 -27z"/> </g> </svg> 