 <svg  version="1.0" xmlns="http://www.w3.org/2000/svg"  width="300.000000pt" height="300.000000pt" viewBox="0 0 300.000000 300.000000"  preserveAspectRatio="xMidYMid meet">  <g transform="translate(0.000000,300.000000) scale(0.100000,-0.100000)" fill="#e11414" stroke="none"> <path d="M665 2734 c-135 -32 -206 -60 -295 -119 -156 -101 -273 -261 -329 -450 -62 -212 -40 -422 65 -614 61 -111 -2 -45 1129 -1188 213 -216 233 -233 265 -233 39 0 -48 -84 915 890 447 452 490 507 544 685 119 397 -89 832 -471 984 -105 42 -190 55 -332 48 -228 -10 -377 -84 -568 -281 l-88 -90 -87 90 c-100 102 -177 162 -266 207 -114 56 -170 69 -322 72 -77 2 -149 2 -160 -1z"/> </g> </svg> 