 <svg  version="1.0" xmlns="http://www.w3.org/2000/svg"  width="300.000000pt" height="300.000000pt" viewBox="0 0 300.000000 300.000000"  preserveAspectRatio="xMidYMid meet">  <g transform="translate(0.000000,300.000000) scale(0.100000,-0.100000)" fill="#f0f0f0" stroke="none"> <path d="M2520 2909 c-236 -79 -257 -88 -264 -105 -10 -25 12 -54 41 -54 19 0 337 99 439 137 13 5 39 -87 27 -97 -4 -4 -80 -29 -168 -55 -88 -26 -390 -116 -671 -201 -281 -85 -515 -154 -520 -154 -6 0 -8 15 -6 33 l4 33 356 118 c366 121 403 138 382 176 -5 10 -16 20 -23 23 -8 3 -173 -47 -367 -110 -229 -75 -355 -112 -359 -105 -12 20 -55 29 -91 20 -69 -19 -100 -39 -108 -71 -6 -25 -16 -33 -51 -45 -39 -13 -46 -13 -76 4 -31 16 -39 17 -87 5 -69 -17 -95 -34 -111 -74 -11 -26 -24 -35 -64 -48 -47 -15 -51 -15 -72 2 -28 23 -53 24 -117 3 -58 -20 -78 -35 -94 -73 -8 -21 -24 -32 -58 -43 -44 -14 -48 -14 -74 5 -30 22 -62 20 -134 -12 -35 -16 -46 -26 -50 -50 -6 -27 -14 -33 -61 -48 -69 -22 -103 -55 -103 -100 0 -37 23 -89 42 -95 8 -3 11 -23 9 -59 -2 -49 1 -57 28 -83 29 -28 33 -29 94 -22 75 7 73 9 83 -87 6 -63 -1 -92 -62 -249 l-19 -48 -86 0 c-78 0 -88 -2 -108 -24 -21 -22 -23 -31 -16 -83 48 -401 242 -754 538 -976 76 -57 77 -59 77 -103 0 -55 19 -101 55 -134 l27 -25 614 -3 c679 -3 654 -5 694 61 14 22 20 50 20 88 l0 55 61 43 c283 199 483 536 548 920 21 121 17 152 -18 170 -13 8 -223 11 -645 11 -344 0 -626 2 -626 5 0 2 12 40 27 82 35 103 37 261 3 366 -12 38 -20 70 -18 72 2 1 210 28 463 59 253 32 561 70 685 86 124 15 272 34 330 41 93 11 108 16 134 41 27 28 28 32 22 91 -10 92 -23 125 -57 143 -28 14 -63 10 -557 -66 -1183 -181 -1072 -166 -1072 -149 0 8 11 38 23 68 l22 54 730 219 c784 235 775 232 775 297 0 37 -36 140 -57 163 -28 31 -94 21 -283 -43z m-1204 -471 c-4 -23 -26 -87 -49 -143 -40 -96 -41 -104 -41 -210 0 -102 2 -115 30 -175 75 -160 84 -309 27 -450 -26 -64 -34 -75 -57 -78 -14 -2 -26 -1 -26 1 0 3 15 38 33 78 30 70 32 80 32 194 0 116 -2 123 -37 201 -71 160 -72 298 -3 455 18 42 37 94 41 116 7 39 18 53 43 53 10 0 12 -10 7 -42z m-345 -145 c-70 -161 -68 -271 11 -439 31 -67 33 -73 33 -199 0 -121 -2 -135 -29 -198 -29 -68 -41 -82 -70 -75 -12 2 -10 14 14 68 64 143 62 265 -7 420 -38 84 -38 86 -38 215 0 122 2 134 30 200 20 46 39 74 55 82 14 7 26 8 28 3 2 -5 -10 -40 -27 -77z m167 36 c-9 -27 -40 -49 -69 -49 -5 0 -3 14 4 32 11 28 31 42 69 47 4 1 2 -13 -4 -30z m1767 -85 c3 -26 3 -50 -2 -53 -12 -10 -1572 -203 -1583 -196 -6 3 -10 17 -10 30 0 27 -69 14 630 120 272 41 522 79 555 85 33 5 119 19 190 30 72 10 141 21 155 23 57 9 57 9 65 -39z m-2262 -35 c-11 -36 -14 -81 -11 -148 4 -84 9 -106 42 -180 63 -144 67 -295 10 -435 -23 -55 -32 -66 -51 -66 -13 0 -23 4 -23 9 0 5 14 42 32 82 29 68 32 83 33 179 0 102 -1 108 -44 210 -37 90 -44 118 -49 196 -5 105 10 190 36 197 39 10 40 8 25 -44z m162 19 c-10 -32 -16 -37 -52 -44 -29 -6 -31 -4 -26 16 3 12 20 28 37 36 43 18 48 17 41 -8z m285 -83 c0 -25 -4 -45 -9 -45 -5 0 -23 -3 -40 -6 -29 -6 -31 -5 -31 23 0 31 16 57 40 66 34 12 40 7 40 -38z m-758 -82 c4 -74 12 -105 48 -193 66 -162 67 -282 2 -432 -20 -47 -29 -58 -48 -58 -13 0 -24 2 -24 6 0 3 14 37 31 77 27 60 33 89 37 167 4 102 9 83 -70 300 -21 56 -35 177 -25 204 4 9 15 16 25 16 17 0 20 -10 24 -87z m158 59 c0 -12 -12 -22 -34 -29 -19 -6 -37 -8 -40 -5 -14 13 -4 31 22 40 41 15 52 14 52 -6z m298 -44 c-2 -19 -10 -24 -40 -26 -46 -4 -53 21 -10 36 43 16 54 14 50 -10z m-593 -57 c-6 -5 -22 -13 -37 -16 -21 -6 -28 -4 -28 8 0 18 51 38 65 26 5 -6 5 -12 0 -18z m897 -35 c4 -20 0 -25 -25 -30 -35 -7 -33 -8 -42 27 -7 26 -5 27 28 27 29 0 35 -4 39 -24z m-292 -25 c0 -5 3 -16 6 -25 5 -12 -1 -16 -24 -16 -32 0 -52 27 -30 42 18 11 48 10 48 -1z m-280 -63 c0 -14 -43 -20 -51 -7 -13 21 -11 27 14 31 20 3 36 -7 37 -24z m-282 -35 c2 -9 -8 -13 -32 -13 -34 0 -44 8 -29 24 11 11 56 2 61 -11z m910 -41 c55 -127 54 -201 -3 -344 -37 -92 -41 -98 -68 -98 -24 0 -28 3 -22 18 45 111 48 128 48 252 0 87 -5 140 -15 173 l-16 47 28 0 c23 0 31 -7 48 -48z m-285 -29 c17 -38 22 -67 22 -138 0 -83 -3 -97 -40 -182 -37 -87 -41 -93 -68 -93 -24 0 -28 3 -22 18 48 114 49 116 49 242 1 69 -3 142 -7 163 -8 35 -7 37 18 37 21 0 30 -9 48 -47z m-283 -38 c22 -78 8 -197 -34 -290 -29 -66 -40 -81 -61 -83 -14 -2 -25 -1 -25 2 0 3 12 41 26 83 21 62 27 97 27 173 0 52 -3 110 -7 128 -7 31 -7 32 27 32 32 0 35 -3 47 -45z m1970 -562 c-36 -202 -101 -368 -206 -525 -74 -111 -196 -241 -293 -312 l-63 -46 -458 0 c-404 0 -460 -2 -474 -16 -20 -20 -20 -38 0 -58 14 -14 69 -16 455 -16 l439 0 0 -33 c0 -18 -6 -42 -14 -53 -14 -18 -33 -19 -593 -22 -453 -1 -583 1 -603 11 -20 10 -26 21 -28 55 l-3 42 86 0 c98 0 125 10 125 45 0 36 -28 45 -145 45 l-106 0 -57 42 c-86 63 -233 214 -289 298 -117 175 -197 385 -227 598 l-6 42 1239 0 1238 0 -17 -97z"/> </g> </svg> 