 <svg  version="1.0" xmlns="http://www.w3.org/2000/svg"  width="300.000000pt" height="300.000000pt" viewBox="0 0 300.000000 300.000000"  preserveAspectRatio="xMidYMid meet">  <g transform="translate(0.000000,300.000000) scale(0.100000,-0.100000)" fill="#fcfcfc" stroke="none"> <path d="M211 1779 c-73 -22 -142 -82 -183 -159 -33 -64 -33 -176 1 -242 29 -57 81 -109 141 -140 l45 -23 1285 0 1285 0 45 23 c60 31 112 83 141 140 34 67 34 177 0 244 -29 57 -81 109 -141 140 l-45 23 -1270 2 c-800 1 -1282 -2 -1304 -8z"/> </g> </svg> 