 <svg  version="1.0" xmlns="http://www.w3.org/2000/svg"  width="300.000000pt" height="300.000000pt" viewBox="0 0 300.000000 300.000000"  preserveAspectRatio="xMidYMid meet">  <g transform="translate(0.000000,300.000000) scale(0.100000,-0.100000)" fill="#ffffff" stroke="none"> <path d="M185 2977 c-68 -38 -85 -86 -85 -238 0 -109 2 -128 18 -142 23 -21 36 -21 56 -1 13 12 16 40 16 138 0 110 2 126 21 150 l20 26 945 0 c931 0 944 0 964 -20 19 -19 20 -33 20 -361 0 -269 -3 -339 -12 -333 -7 5 -36 27 -65 50 -318 258 -816 247 -1126 -25 l-58 -51 -148 0 c-131 0 -150 -2 -164 -18 -22 -24 -21 -35 1 -55 15 -14 40 -17 125 -17 l107 0 -36 -55 -37 -55 -141 0 c-146 0 -166 -5 -166 -41 0 -41 26 -49 149 -49 l118 0 -18 -52 -18 -53 -107 -5 c-87 -4 -109 -8 -118 -22 -8 -13 -8 -23 0 -35 9 -15 28 -19 105 -21 l95 -3 0 -142 c1 -112 6 -159 23 -222 24 -89 83 -221 131 -291 93 -133 258 -265 406 -322 262 -101 573 -74 793 68 34 22 65 40 69 40 4 0 27 -19 50 -43 l42 -43 0 -302 c0 -289 -1 -303 -20 -322 -19 -19 -33 -20 -203 -20 -193 0 -207 -3 -207 -46 0 -42 17 -45 224 -42 216 3 224 6 274 78 21 32 22 40 22 291 0 143 3 259 7 259 4 0 107 -99 229 -221 201 -201 224 -221 261 -226 59 -8 107 18 134 73 41 86 45 82 -307 434 -173 174 -314 318 -314 322 0 3 20 39 44 79 95 158 140 365 118 550 -13 107 -30 149 -61 149 -39 0 -45 -24 -31 -121 71 -496 -299 -929 -795 -929 -466 0 -833 391 -802 853 24 353 267 644 612 733 96 24 284 24 380 0 208 -54 395 -193 499 -370 41 -70 64 -90 90 -80 40 15 28 68 -35 161 l-29 42 0 404 c0 403 0 404 -22 437 -13 18 -36 43 -51 54 -28 21 -32 21 -990 23 l-962 3 -40 -23z m2095 -2182 l-30 -30 -57 57 -57 57 29 31 29 30 58 -57 58 -57 -30 -31z m530 -485 c0 -22 -20 -40 -45 -40 -13 0 -94 74 -235 215 l-214 214 29 31 29 31 218 -218 c120 -120 218 -225 218 -233z"/> <path d="M470 2617 c-29 -14 -37 -41 -20 -62 10 -13 63 -15 315 -15 321 0 332 2 323 47 -7 38 -42 43 -323 43 -197 0 -277 -4 -295 -13z"/> <path d="M110 2461 c-7 -13 -10 -397 -10 -1173 l0 -1154 22 -44 c15 -30 37 -53 63 -67 l40 -23 687 0 c611 0 688 2 702 16 21 20 20 37 -2 57 -17 16 -80 17 -700 17 l-681 0 -20 26 c-21 27 -21 28 -21 1183 0 887 -3 1160 -12 1169 -18 18 -56 14 -68 -7z"/> <path d="M1385 2243 c-89 -19 -212 -77 -293 -138 -211 -159 -314 -449 -257 -719 45 -213 218 -419 422 -504 170 -71 386 -71 556 0 204 85 378 293 422 503 32 155 12 330 -55 470 -139 292 -476 457 -795 388z m295 -89 c112 -26 206 -79 296 -169 89 -88 140 -177 170 -294 23 -92 16 -263 -15 -351 -66 -188 -215 -334 -404 -396 -117 -39 -267 -39 -384 0 -189 62 -338 208 -404 396 -31 88 -38 259 -15 351 56 224 241 410 461 463 80 19 215 19 295 0z"/> <path d="M456 474 c-19 -18 -21 -45 -4 -62 17 -17 609 -17 626 0 17 17 15 44 -4 62 -13 14 -55 16 -309 16 -254 0 -296 -2 -309 -16z"/> </g> </svg> 