 <svg  version="1.0" xmlns="http://www.w3.org/2000/svg"  width="300.000000pt" height="300.000000pt" viewBox="0 0 300.000000 300.000000"  preserveAspectRatio="xMidYMid meet">  <g transform="translate(0.000000,300.000000) scale(0.100000,-0.100000)" fill="#000000" stroke="none"> <path d="M1260 2979 c-316 -50 -603 -201 -832 -437 -251 -259 -401 -588 -414 -907 -4 -98 -3 -99 11 -56 8 24 24 96 35 160 70 391 279 725 596 949 176 126 381 209 621 251 67 12 139 28 160 36 38 14 38 14 -42 13 -44 0 -105 -4 -135 -9z"/> <path d="M1563 2975 c21 -8 93 -24 160 -36 277 -48 488 -141 694 -306 275 -220 461 -541 523 -901 11 -65 27 -136 35 -158 15 -38 15 -37 11 61 -10 233 -97 483 -246 706 -84 125 -274 315 -399 399 -225 150 -475 237 -711 246 -101 4 -104 4 -67 -11z"/> <path d="M1361 2574 c-174 -47 -322 -194 -378 -376 -23 -74 -22 -217 1 -288 79 -237 277 -390 507 -390 96 0 164 15 246 56 143 70 254 215 288 379 18 87 18 113 0 200 -43 204 -196 369 -390 420 -73 19 -202 18 -274 -1z m270 -40 c133 -39 258 -142 313 -257 30 -65 56 -165 56 -222 0 -120 -58 -254 -150 -346 -279 -280 -743 -145 -835 245 -19 77 -18 125 0 204 43 181 168 317 344 373 71 23 200 24 272 3z"/> <path d="M13 1363 c18 -326 168 -651 415 -905 128 -131 250 -220 407 -298 198 -97 349 -138 530 -146 l100 -4 -60 19 c-33 10 -112 28 -175 40 -585 111 -1043 562 -1159 1142 -37 182 -53 249 -58 249 -3 0 -3 -44 0 -97z"/> <path d="M2972 1423 c-7 -23 -21 -90 -32 -150 -72 -403 -262 -714 -580 -950 -182 -136 -395 -223 -656 -268 -50 -8 -109 -22 -130 -30 -38 -15 -36 -15 61 -11 173 7 325 48 511 135 284 135 548 391 688 670 100 198 163 440 154 591 l-3 55 -13 -42z"/> <path d="M1093 1345 c-225 -49 -400 -249 -419 -478 -11 -132 24 -199 158 -298 327 -242 778 -286 1146 -112 99 47 244 145 286 194 86 100 88 240 6 406 -71 145 -212 255 -367 288 -94 20 -718 20 -810 0z m803 -40 c101 -23 173 -63 245 -136 129 -128 182 -313 127 -441 -18 -43 -36 -61 -107 -114 -149 -111 -288 -171 -475 -204 -132 -24 -224 -25 -354 -5 -186 30 -357 104 -508 219 -84 65 -114 117 -114 201 0 224 163 425 389 480 83 20 712 20 797 0z"/> </g> </svg> 