<?xml version="1.0" standalone="no"?>
<!DOCTYPE svg PUBLIC "-//W3C//DTD SVG 20010904//EN"
 "http://www.w3.org/TR/2001/REC-SVG-20010904/DTD/svg10.dtd">
<svg version="1.0" xmlns="http://www.w3.org/2000/svg"
 width="900.000000pt" height="900.000000pt" viewBox="0 0 900.000000 900.000000"
 preserveAspectRatio="xMidYMid meet">
<metadata>
Created by potrace 1.10, written by Peter Selinger 2001-2011
</metadata>
<g transform="translate(0.000000,900.000000) scale(0.100000,-0.100000)"
fill="#ffffff" stroke="none">
<path d="M4313 8988 c1 -7 -15 -16 -38 -21 -208 -46 -377 -139 -526 -287 -154
-154 -243 -316 -293 -536 -14 -64 -16 -206 -16 -1326 0 -962 -3 -1257 -12
-1266 -9 -9 -304 -12 -1266 -12 -1120 0 -1262 -2 -1326 -16 -220 -50 -382
-139 -536 -293 -151 -151 -236 -309 -289 -534 -14 -61 -14 -353 0 -414 53
-225 138 -383 289 -534 123 -123 267 -213 415 -259 167 -52 98 -50 1446 -50
963 0 1258 -3 1267 -12 9 -9 12 -304 12 -1266 0 -1120 2 -1262 16 -1326 50
-220 139 -382 293 -536 151 -151 309 -236 534 -289 61 -14 353 -14 414 0 225
53 383 138 534 289 154 154 243 316 293 536 14 64 16 206 16 1326 0 962 3
1257 12 1266 9 9 304 12 1266 12 1120 0 1262 2 1326 16 150 34 253 78 376 159
90 59 231 197 284 279 81 123 143 271 161 379 3 21 13 41 21 44 19 7 21 355 2
350 -7 -1 -16 15 -21 38 -57 255 -196 474 -397 624 -91 68 -98 72 -178 111
-74 36 -150 62 -248 84 -64 14 -206 16 -1326 16 -962 0 -1257 3 -1266 12 -9 9
-12 304 -12 1266 0 1350 2 1292 -50 1452 -62 190 -206 389 -369 509 -116 87
-268 155 -416 188 -23 5 -39 14 -37 21 1 9 -42 12 -178 12 -136 0 -179 -3
-177 -12z m278 -537 c186 -31 366 -201 411 -388 8 -35 13 -435 17 -1458 l6
-1410 34 -51 c19 -29 56 -66 85 -85 l51 -34 1410 -6 c1026 -4 1423 -8 1458
-17 145 -35 284 -152 351 -295 59 -126 59 -308 0 -434 -67 -143 -206 -260
-351 -295 -35 -8 -435 -13 -1458 -17 l-1410 -6 -51 -34 c-29 -19 -66 -56 -85
-85 l-34 -51 -6 -1410 c-4 -1023 -9 -1423 -17 -1458 -35 -145 -152 -284 -295
-351 -126 -59 -308 -59 -434 0 -143 67 -260 206 -295 351 -9 35 -13 432 -17
1458 l-6 1410 -34 51 c-19 29 -56 66 -85 85 l-51 34 -1410 6 c-1026 4 -1423 8
-1458 17 -145 35 -284 152 -351 295 -59 126 -59 308 0 434 67 143 206 260 351
295 35 9 432 13 1458 17 l1410 6 51 34 c29 19 66 56 85 85 l34 51 6 1410 c4
1026 8 1423 17 1458 35 144 152 284 294 350 93 44 202 57 319 38z"/>
</g>
</svg>
