<?xml version="1.0" standalone="no"?>
<!DOCTYPE svg PUBLIC "-//W3C//DTD SVG 20010904//EN"
 "http://www.w3.org/TR/2001/REC-SVG-20010904/DTD/svg10.dtd">
<svg version="1.0" xmlns="http://www.w3.org/2000/svg"
 width="300.000000pt" height="300.000000pt" viewBox="0 0 300.000000 300.000000"
 preserveAspectRatio="xMidYMid meet">
<metadata>
Created by potrace 1.10, written by Peter Selinger 2001-2011
</metadata>
<g transform="translate(0.000000,300.000000) scale(0.100000,-0.100000)"
fill="#ffffff" stroke="none">
<path d="M1847 2985 c-214 -41 -385 -133 -538 -291 -157 -162 -244 -351 -270
-583 -26 -234 48 -494 195 -687 l54 -71 -88 -88 -87 -87 -31 16 c-38 20 -104
21 -140 2 -15 -8 -226 -214 -469 -458 -301 -302 -447 -455 -458 -480 -47 -114
28 -242 149 -255 91 -11 88 -14 569 466 247 245 455 458 463 473 19 36 18 102
-2 140 l-16 31 87 87 88 88 71 -54 c332 -254 790 -266 1145 -29 88 58 234 212
287 301 54 91 98 201 120 299 27 115 25 341 -4 447 -99 363 -361 625 -720 719
-103 27 -299 34 -405 14z m319 -86 c326 -57 593 -287 700 -601 51 -151 57
-365 14 -516 -90 -320 -337 -557 -666 -639 -93 -23 -303 -23 -397 0 -334 82
-592 340 -674 674 -23 94 -23 304 0 397 90 359 372 626 725 686 70 12 230 11
298 -1z m-1089 -1822 c29 -30 53 -59 53 -66 0 -6 -21 -34 -47 -62 l-47 -50
-68 68 -69 68 50 48 c27 26 55 47 62 47 7 0 36 -24 66 -53z m-167 -172 l65
-65 -375 -375 c-362 -362 -377 -375 -414 -375 -53 0 -96 43 -96 96 0 37 13 52
372 411 205 205 375 373 378 373 3 0 35 -29 70 -65z"/>
<path d="M1860 2796 c-79 -18 -127 -35 -195 -69 -126 -63 -173 -109 -145 -142
20 -24 50 -17 117 26 101 66 217 101 350 107 138 6 232 -13 341 -68 148 -75
247 -174 322 -322 55 -109 74 -203 68 -341 -6 -133 -41 -249 -107 -350 -45
-70 -51 -101 -21 -117 28 -15 52 0 88 57 95 148 127 262 126 448 0 130 -2 147
-32 235 -40 119 -89 203 -171 292 -159 172 -362 260 -593 257 -51 -1 -118 -7
-148 -13z"/>
<path d="M1369 2478 c-44 -59 -103 -189 -125 -273 -27 -102 -25 -285 4 -387
42 -149 107 -262 207 -363 101 -100 213 -165 363 -207 101 -29 283 -31 387 -4
84 22 214 81 273 125 50 37 57 75 18 92 -21 10 -31 7 -70 -20 -225 -155 -503
-171 -751 -43 -96 50 -227 181 -277 277 -128 248 -112 526 43 751 27 39 30 49
20 70 -17 39 -55 32 -92 -18z"/>
<path d="M1659 2279 c-26 -26 -25 -33 21 -83 l40 -43 -31 -29 c-47 -44 -54
-62 -33 -85 25 -28 43 -24 86 18 l38 37 38 -37 c39 -38 69 -46 90 -25 21 21
13 46 -25 88 l-36 41 37 38 c41 42 44 65 9 88 -20 14 -25 12 -66 -26 l-44 -40
-32 33 c-42 43 -67 50 -92 25z"/>
<path d="M2129 2279 c-26 -26 -25 -33 21 -83 l40 -43 -31 -29 c-56 -53 -60
-88 -12 -100 19 -5 33 1 64 32 l39 38 38 -37 c39 -38 69 -46 90 -25 21 21 13
46 -25 88 l-36 41 37 38 c41 42 44 65 9 88 -20 14 -25 12 -66 -26 l-44 -40
-32 33 c-42 43 -67 50 -92 25z"/>
<path d="M1934 1815 c-73 -16 -111 -34 -159 -76 -40 -35 -46 -72 -15 -89 17
-9 31 -5 81 29 121 81 264 76 371 -14 36 -30 42 -31 67 -6 27 27 17 55 -32 91
-86 63 -207 89 -313 65z"/>
</g>
</svg>
