<?xml version="1.0" standalone="no"?>
<!DOCTYPE svg PUBLIC "-//W3C//DTD SVG 20010904//EN"
 "http://www.w3.org/TR/2001/REC-SVG-20010904/DTD/svg10.dtd">
<svg version="1.0" xmlns="http://www.w3.org/2000/svg"
 width="300.000000pt" height="300.000000pt" viewBox="0 0 300.000000 300.000000"
 preserveAspectRatio="xMidYMid meet">
<metadata>
Created by potrace 1.10, written by Peter Selinger 2001-2011
</metadata>
<g transform="translate(0.000000,300.000000) scale(0.050000,-0.050000)"
fill="#ffffff" stroke="none">
<path d="M3262 5869 l-869 -126 -1137 -1136 c-1285 -1284 -1246 -1238 -1245
-1517 0 -281 -36 -236 1107 -1378 l1017 -1015 10 -126 c18 -221 153 -407 373
-516 l92 -45 1450 0 1450 0 112 52 c142 67 249 174 316 316 l52 112 5 1641 6
1641 -322 429 -322 429 12 115 c16 146 7 162 -222 396 l-186 191 181 179 c257
254 286 324 180 431 -108 107 -157 88 -401 -151 l-212 -210 -170 169 c-197
198 -272 251 -351 248 -32 -1 -449 -59 -926 -129z m1033 -373 c174 -174 172
-157 31 -300 l-113 -114 -85 78 c-170 157 -382 82 -338 -119 15 -70 561 -614
633 -631 198 -48 268 184 106 351 l-69 70 126 125 125 124 152 -155 153 -155
-115 -797 -114 -796 -1069 -1070 c-1100 -1101 -1128 -1127 -1246 -1127 -126 0
-160 30 -1075 943 -1097 1095 -1037 1028 -1037 1173 l0 113 1100 1101 1100
1101 775 112 c426 62 784 113 795 115 10 1 85 -63 165 -142z m1175 -1603 l170
-226 0 -1559 c0 -1733 9 -1617 -133 -1710 -90 -60 -2783 -59 -2881 1 -145 88
-178 212 -62 231 207 34 211 36 1402 1226 892 891 1139 1149 1154 1204 11 39
47 268 81 510 64 470 78 550 90 550 5 0 85 -102 179 -227z"/>
<path d="M2990 4662 c-22 -10 -55 -34 -72 -55 -35 -39 -878 -2551 -878 -2614
0 -119 194 -193 287 -108 51 47 893 2523 893 2626 0 100 -137 189 -230 151z"/>
<path d="M1469 3753 c-548 -211 -421 -1015 160 -1019 456 -3 702 521 403 860
-142 162 -381 230 -563 159z m229 -335 c180 -63 130 -338 -62 -338 -223 0
-226 273 -4 359 1 1 31 -9 66 -21z"/>
<path d="M3455 3751 c-310 -110 -442 -468 -279 -757 225 -398 827 -325 955
116 117 404 -282 782 -676 641z m315 -398 c102 -145 -68 -327 -229 -244 -64
34 -81 67 -81 159 0 155 219 215 310 85z"/>
</g>
</svg>
