<?xml version="1.0" standalone="no"?>
<!DOCTYPE svg PUBLIC "-//W3C//DTD SVG 20010904//EN"
 "http://www.w3.org/TR/2001/REC-SVG-20010904/DTD/svg10.dtd">
<svg version="1.0" xmlns="http://www.w3.org/2000/svg"
 width="300.000000pt" height="300.000000pt" viewBox="0 0 300.000000 300.000000"
 preserveAspectRatio="xMidYMid meet">
<metadata>
Created by potrace 1.10, written by Peter Selinger 2001-2011
</metadata>
<g transform="translate(0.000000,300.000000) scale(0.050000,-0.050000)"
fill="#ffffff" stroke="none">
<path d="M1400 5590 c-1034 -213 -1626 -1237 -1306 -2260 262 -837 1196 -1855
2503 -2729 421 -282 388 -280 765 -29 1736 1159 2701 2415 2632 3426 -98 1432
-1817 2144 -2872 1189 l-123 -111 -98 91 c-387 362 -981 529 -1501 423z m792
-424 c262 -98 447 -236 660 -491 90 -109 206 -108 296 0 581 699 1474 770
2075 165 932 -938 226 -2350 -1930 -3860 -313 -218 -273 -218 -579 -5 -1685
1172 -2498 2302 -2307 3202 168 787 1038 1269 1785 989z"/>
</g>
</svg>
