<?xml version="1.0" standalone="no"?>
<!DOCTYPE svg PUBLIC "-//W3C//DTD SVG 20010904//EN"
 "http://www.w3.org/TR/2001/REC-SVG-20010904/DTD/svg10.dtd">
<svg version="1.0" xmlns="http://www.w3.org/2000/svg"
 width="300.000000pt" height="300.000000pt" viewBox="0 0 300.000000 300.000000"
 preserveAspectRatio="xMidYMid meet">
<metadata>
Created by potrace 1.10, written by Peter Selinger 2001-2011
</metadata>
<g transform="translate(0.000000,300.000000) scale(0.100000,-0.100000)"
fill="#ffffff" stroke="none">
<path d="M1465 2930 c-48 -11 -80 -37 -107 -88 -14 -26 -96 -215 -184 -420
-120 -285 -163 -376 -178 -381 -12 -4 -212 -25 -446 -45 -234 -21 -439 -44
-456 -51 -42 -17 -85 -75 -91 -123 -11 -85 -6 -91 345 -399 180 -157 335 -293
344 -302 16 -15 11 -43 -83 -456 -65 -285 -98 -451 -95 -470 16 -81 98 -143
176 -132 25 3 165 81 424 236 l387 231 386 -231 c260 -156 398 -233 423 -236
78 -11 160 51 176 132 3 19 -30 186 -95 470 -94 412 -99 441 -83 456 9 9 163
144 341 300 235 206 328 293 338 318 31 74 -9 177 -81 206 -17 7 -222 30 -456
51 -234 20 -434 41 -446 45 -15 5 -58 96 -178 381 -88 205 -170 394 -184 421
-37 70 -105 104 -177 87z m200 -612 c87 -205 168 -387 181 -405 13 -18 42 -38
66 -47 27 -10 192 -29 448 -52 223 -20 406 -37 407 -38 1 -1 -139 -125 -312
-276 -316 -277 -355 -318 -355 -378 0 -13 41 -203 91 -423 50 -220 88 -403 85
-406 -3 -3 -49 21 -103 53 -54 32 -217 129 -362 216 -242 145 -267 158 -311
158 -44 0 -74 -16 -414 -219 -205 -123 -366 -214 -366 -206 0 7 41 191 90 409
50 218 90 406 90 418 0 60 -39 102 -355 378 -173 151 -313 275 -312 276 1 1
184 18 407 38 256 23 421 42 448 52 24 9 53 29 66 47 13 18 94 200 181 405 87
204 161 372 165 372 4 0 78 -168 165 -372z"/>
</g>
</svg>
