<?xml version="1.0" standalone="no"?>
<!DOCTYPE svg PUBLIC "-//W3C//DTD SVG 20010904//EN"
 "http://www.w3.org/TR/2001/REC-SVG-20010904/DTD/svg10.dtd">
<svg version="1.0" xmlns="http://www.w3.org/2000/svg"
 width="900.000000pt" height="900.000000pt" viewBox="0 0 900.000000 900.000000"
 preserveAspectRatio="xMidYMid meet">
<metadata>
Created by potrace 1.10, written by Peter Selinger 2001-2011
</metadata>
<g transform="translate(0.000000,900.000000) scale(0.100000,-0.100000)"
fill="#ffffff" stroke="none">
<path d="M3758 8794 c-4 -4 -38 -10 -75 -14 -38 -4 -84 -13 -103 -20 -100 -36
-116 -43 -130 -51 -8 -5 -22 -12 -30 -15 -8 -3 -22 -10 -30 -15 -8 -5 -26 -14
-39 -20 -65 -27 -239 -182 -319 -283 -16 -20 -39 -20 -85 -1 -44 18 -322 21
-377 4 -19 -6 -53 -15 -75 -19 -76 -15 -266 -100 -306 -136 -8 -8 -19 -14 -23
-14 -11 0 -66 -45 -134 -110 -58 -55 -127 -140 -174 -215 -32 -52 -98 -203
-98 -226 0 -24 -33 -41 -95 -50 -158 -23 -314 -90 -457 -197 -59 -44 -190
-173 -197 -195 -2 -7 -21 -34 -41 -62 -21 -27 -53 -84 -72 -125 -32 -70 -42
-100 -82 -239 -11 -35 -16 -94 -16 -171 0 -128 1 -126 -70 -164 -164 -89 -347
-283 -423 -448 -46 -101 -67 -162 -77 -218 -4 -25 -13 -61 -19 -80 -17 -54
-14 -283 5 -354 28 -109 56 -196 65 -202 17 -10 9 -49 -14 -74 -37 -41 -97
-117 -97 -123 0 -3 -20 -40 -45 -81 -25 -42 -45 -81 -45 -86 0 -5 -6 -24 -14
-42 -49 -119 -60 -187 -59 -383 0 -175 9 -241 43 -325 12 -30 25 -66 30 -80 4
-14 22 -52 39 -85 29 -56 44 -78 146 -203 22 -27 64 -66 92 -87 29 -21 62 -47
73 -57 25 -23 204 -118 223 -118 8 0 28 -7 43 -15 16 -8 39 -15 51 -15 24 0
56 -27 51 -42 -3 -9 -81 -58 -118 -74 -26 -12 -103 -75 -173 -143 -81 -78
-199 -248 -220 -318 -3 -10 -17 -49 -31 -87 -14 -38 -26 -78 -26 -90 0 -12 -7
-39 -15 -61 -20 -57 -20 -289 0 -369 29 -111 47 -171 61 -198 22 -42 16 -60
-42 -123 -31 -33 -62 -73 -69 -90 -21 -44 -63 -117 -75 -129 -5 -5 -10 -19
-10 -29 0 -10 -6 -31 -14 -45 -23 -46 -38 -95 -49 -157 -11 -68 -13 -360 -3
-420 10 -57 47 -174 57 -181 5 -3 9 -13 9 -23 0 -20 53 -126 76 -152 8 -8 14
-19 14 -24 0 -18 131 -162 195 -215 99 -81 286 -180 340 -180 11 0 26 -5 32
-11 41 -41 432 -42 558 -1 17 5 57 17 90 27 33 9 81 23 106 31 26 8 57 14 70
14 13 1 35 7 49 15 14 8 36 14 49 15 13 0 48 7 78 15 29 8 77 22 106 30 30 8
64 15 77 15 12 0 43 6 69 14 55 18 166 41 316 66 39 7 88 18 110 26 23 8 65
14 95 14 30 1 73 7 95 15 22 8 59 15 82 15 23 0 68 7 100 15 31 8 83 15 114
15 32 0 70 5 86 11 15 6 80 15 144 19 64 5 128 14 143 20 15 5 66 10 114 10
48 1 119 5 157 11 297 43 1563 43 1885 0 41 -6 112 -10 157 -11 45 0 108 -7
140 -15 31 -8 84 -15 118 -15 33 0 98 -6 145 -14 160 -27 235 -39 300 -46 36
-4 83 -13 105 -19 22 -6 58 -11 79 -11 22 0 62 -6 90 -14 48 -14 118 -28 231
-46 28 -4 63 -13 78 -19 16 -6 41 -11 56 -11 16 0 45 -7 64 -15 20 -8 49 -15
66 -15 16 0 51 -6 77 -14 77 -22 136 -37 179 -45 22 -4 50 -13 62 -19 12 -7
32 -12 44 -12 11 0 43 -7 70 -15 27 -8 71 -22 98 -30 27 -8 60 -15 74 -15 13
0 44 -7 67 -15 58 -20 298 -20 355 0 22 8 54 15 71 15 16 0 39 7 50 15 10 8
27 15 36 15 9 0 29 6 45 14 15 8 39 19 53 25 82 35 227 138 286 204 75 84 144
169 157 197 4 8 13 24 20 35 7 11 24 38 37 60 14 23 31 50 38 60 6 11 15 27
18 35 3 8 18 47 34 85 15 39 32 84 37 100 5 17 15 29 21 27 9 -1 12 36 12 139
0 86 -4 138 -9 134 -13 -8 -31 27 -31 60 0 51 -72 235 -120 310 -11 17 -24 39
-29 50 -5 11 -32 45 -60 75 -59 64 -68 88 -48 127 15 28 33 86 62 199 20 80
20 312 0 369 -8 22 -15 52 -15 67 0 15 -6 42 -14 60 -8 18 -22 53 -31 78 -63
164 -193 338 -330 441 -33 25 -67 49 -75 52 -39 18 -115 66 -118 75 -4 14 26
42 47 42 26 0 131 39 178 66 23 13 47 24 53 24 10 0 61 32 86 55 6 6 33 26 60
44 27 19 75 64 107 100 58 66 157 205 157 221 0 5 6 21 14 37 38 78 76 189 76
221 0 31 11 52 26 52 11 0 14 31 14 170 0 139 -3 170 -14 170 -16 0 -26 21
-26 58 0 97 -121 341 -230 462 -45 50 -45 48 -8 155 47 135 58 197 58 332 0
70 -5 146 -11 168 -6 22 -14 58 -19 80 -9 47 -27 99 -46 137 -8 14 -14 35 -14
46 0 11 -7 25 -15 32 -8 7 -15 17 -15 22 0 5 -24 46 -54 91 -83 128 -231 267
-346 328 -82 43 -80 39 -80 168 0 64 -5 132 -11 151 -6 19 -15 53 -19 75 -18
87 -90 246 -144 317 -18 24 -35 48 -37 55 -7 22 -138 151 -197 195 -143 107
-299 174 -457 197 -62 9 -95 26 -95 50 0 46 -82 206 -166 326 -44 62 -217 225
-240 225 -4 0 -15 6 -23 14 -40 36 -230 121 -306 136 -22 4 -56 13 -75 19 -55
17 -333 14 -377 -4 -19 -8 -42 -15 -50 -15 -9 0 -54 41 -101 91 -153 162 -256
228 -482 309 -124 44 -485 43 -610 -1 -29 -10 -117 -44 -190 -73 -8 -4 -28
-15 -45 -26 -63 -42 -74 -43 -129 -14 -113 60 -137 71 -256 114 -19 7 -64 17
-100 22 -90 13 -304 21 -312 12z m277 -542 c86 -31 138 -63 205 -127 70 -68
118 -97 192 -116 40 -11 55 -10 107 6 48 14 77 33 142 91 134 120 246 164 412
164 116 0 175 -14 276 -66 73 -38 162 -139 211 -238 22 -45 46 -88 53 -96 24
-30 93 -77 122 -84 97 -24 134 -19 253 35 34 16 70 29 80 29 10 0 42 7 70 15
46 14 58 14 111 0 32 -8 70 -15 84 -15 48 0 207 -91 244 -140 6 -8 25 -31 43
-50 29 -32 43 -58 84 -153 9 -22 16 -65 16 -103 0 -123 52 -221 145 -275 49
-27 54 -28 200 -29 118 0 161 -5 203 -19 29 -10 58 -23 65 -30 6 -6 19 -11 28
-11 9 0 22 -7 29 -15 7 -8 17 -15 22 -15 17 0 98 -83 136 -140 48 -72 66 -117
88 -218 14 -66 15 -90 6 -115 -6 -18 -14 -50 -17 -72 -3 -22 -13 -64 -21 -92
-15 -49 -14 -58 2 -110 36 -117 80 -161 199 -197 152 -47 212 -82 293 -171 57
-62 122 -183 122 -226 0 -15 5 -40 11 -55 14 -38 -6 -193 -33 -259 -11 -27
-37 -75 -56 -105 -69 -106 -72 -114 -72 -206 0 -81 2 -88 35 -137 19 -30 57
-67 87 -87 68 -45 124 -102 168 -171 66 -101 85 -185 76 -327 -5 -77 -12 -105
-42 -168 -61 -130 -217 -264 -308 -264 -30 0 -37 5 -61 48 -67 115 -179 240
-290 322 -62 46 -69 51 -145 89 -25 13 -54 28 -65 34 -11 6 -33 14 -50 18 -16
4 -43 12 -60 18 -16 5 -66 18 -110 27 -93 20 -101 24 -109 64 -3 17 -17 54
-30 83 -13 28 -27 59 -30 67 -43 109 -215 303 -342 387 -78 51 -221 121 -265
129 -19 4 -40 11 -46 17 -30 23 -302 44 -381 28 -31 -6 -84 -11 -116 -12 -55
-2 -60 0 -80 27 -83 116 -262 255 -396 308 -8 3 -22 10 -30 15 -23 13 -81 32
-125 41 -22 4 -56 13 -75 19 -46 14 -370 15 -407 0 -15 -6 -48 -14 -73 -19
-52 -10 -112 -31 -185 -66 -29 -13 -55 -24 -58 -24 -3 0 -27 -14 -52 -31 l-45
-31 -33 20 c-58 37 -191 102 -207 102 -8 0 -24 7 -34 15 -11 8 -34 15 -52 15
-17 0 -48 7 -67 15 -45 19 -369 22 -414 4 -15 -7 -46 -15 -68 -19 -61 -12
-193 -67 -270 -113 -95 -57 -226 -174 -281 -251 -20 -27 -25 -29 -80 -27 -32
1 -85 6 -117 13 -79 15 -356 -7 -380 -31 -6 -6 -21 -11 -34 -11 -32 0 -204
-84 -288 -142 -38 -26 -102 -80 -142 -120 -70 -71 -193 -239 -193 -264 0 -7
-11 -35 -25 -62 -14 -28 -28 -64 -31 -81 -8 -41 -17 -46 -104 -65 -150 -32
-292 -87 -367 -142 -17 -13 -35 -24 -39 -24 -11 0 -93 -70 -154 -130 -67 -67
-105 -115 -155 -197 -34 -58 -41 -63 -72 -63 -91 0 -244 132 -308 266 -37 78
-38 80 -39 204 0 127 16 212 50 251 8 8 14 19 14 23 0 9 54 79 81 107 9 9 47
40 85 68 38 29 83 73 101 99 30 44 32 53 33 135 0 95 -4 106 -65 197 -61 90
-83 152 -94 257 -6 61 -7 103 -1 114 6 10 10 33 10 51 0 49 62 168 122 233 81
89 141 124 293 171 117 36 163 81 199 196 15 47 15 63 5 100 -6 23 -18 70 -25
103 -7 33 -16 72 -19 86 -7 29 31 216 46 225 5 3 9 11 9 18 0 22 75 128 122
171 24 22 61 49 83 60 22 11 46 24 53 29 46 32 121 45 265 46 117 0 155 3 180
16 107 55 158 138 164 269 5 105 45 210 103 275 18 19 37 42 43 50 28 36 106
88 187 123 36 15 155 39 200 40 42 0 152 -29 210 -55 111 -50 149 -55 245 -32
29 7 97 53 123 84 7 8 27 47 46 85 43 90 102 164 168 212 50 36 73 49 158 86
52 23 249 22 315 -1z m-75 -3147 c14 -8 39 -14 55 -15 49 0 153 -60 232 -134
102 -95 129 -108 231 -108 62 0 88 4 101 16 10 9 22 16 28 16 5 0 32 21 59 46
27 26 63 57 79 69 55 42 164 95 193 95 16 0 46 7 65 15 47 19 146 19 183 0 16
-8 42 -15 57 -15 16 0 41 -6 55 -14 15 -7 45 -22 67 -32 70 -33 165 -139 213
-236 71 -144 142 -198 261 -198 53 0 80 6 118 24 110 56 131 60 268 60 129 0
186 -11 217 -42 7 -7 18 -12 26 -12 50 0 242 -209 242 -264 0 -7 7 -27 15 -42
8 -17 15 -55 15 -90 0 -129 59 -238 153 -284 48 -23 62 -24 172 -22 66 1 144
-3 175 -9 58 -12 136 -44 146 -60 3 -5 12 -9 21 -9 21 0 119 -93 159 -150 39
-56 69 -124 78 -175 4 -22 12 -54 18 -72 12 -33 -2 -124 -39 -252 -14 -49 -13
-58 4 -119 14 -52 28 -75 64 -111 47 -48 83 -66 184 -96 33 -9 67 -21 75 -26
8 -4 35 -18 58 -31 63 -32 154 -134 193 -215 75 -157 67 -363 -19 -494 -87
-134 -92 -146 -92 -237 0 -81 2 -90 31 -132 17 -25 57 -65 88 -90 104 -83 164
-149 193 -213 10 -21 25 -52 33 -70 11 -22 17 -64 18 -123 1 -84 -1 -92 -31
-142 -18 -29 -32 -55 -32 -57 0 -8 -65 -101 -95 -135 -168 -194 -342 -238
-620 -155 -27 8 -70 19 -95 26 -25 6 -58 15 -75 21 -16 6 -48 13 -70 17 -22 4
-56 12 -75 18 -52 17 -129 35 -180 43 -25 4 -58 12 -73 19 -16 6 -44 11 -63
11 -19 0 -51 7 -71 15 -19 8 -49 15 -65 15 -16 0 -60 7 -96 16 -37 8 -87 20
-112 26 -25 6 -74 14 -110 18 -36 4 -90 12 -120 18 -83 17 -187 33 -265 42
-38 5 -77 11 -86 15 -9 3 -65 10 -125 15 -60 4 -143 13 -184 19 -438 62 -1470
92 -1935 56 -104 -8 -231 -15 -282 -15 -50 0 -103 -4 -118 -10 -14 -5 -97 -14
-183 -19 -86 -5 -170 -14 -185 -20 -16 -6 -54 -11 -85 -11 -31 0 -84 -5 -117
-11 -33 -6 -94 -14 -135 -19 -41 -5 -93 -13 -115 -19 -22 -6 -59 -11 -82 -11
-23 0 -54 -5 -70 -11 -15 -7 -62 -15 -103 -19 -41 -4 -95 -12 -120 -18 -25 -6
-81 -18 -125 -27 -44 -9 -100 -21 -125 -27 -25 -6 -70 -14 -101 -18 -30 -4
-65 -12 -77 -19 -11 -6 -33 -11 -48 -11 -14 0 -47 -6 -73 -14 -57 -18 -133
-36 -186 -45 -22 -4 -50 -13 -62 -19 -12 -7 -33 -12 -47 -12 -14 0 -43 -6 -63
-14 -21 -7 -67 -21 -103 -30 -36 -10 -85 -24 -110 -32 -29 -9 -88 -14 -163
-14 -111 0 -122 2 -177 29 -176 87 -280 234 -295 411 -17 220 53 362 257 520
25 19 59 55 77 80 29 43 31 51 31 134 0 94 0 94 -92 235 -10 14 -19 31 -21 36
-24 65 -30 86 -38 123 -45 220 37 412 234 546 37 25 72 46 78 46 14 0 101 28
153 49 64 26 128 98 150 169 10 34 16 72 12 84 -3 13 -10 48 -17 78 -6 30 -17
76 -24 102 -12 42 -12 59 5 146 22 115 54 180 127 262 113 124 270 188 443
177 88 -5 170 7 211 32 74 45 129 162 129 275 0 35 7 73 15 90 8 15 15 35 15
42 0 18 20 50 76 125 44 57 123 122 184 150 105 49 112 50 236 46 123 -3 155
-11 257 -63 63 -31 169 -34 226 -5 41 21 131 107 131 125 0 43 142 246 171
246 6 0 25 11 42 23 46 34 114 67 140 68 12 0 38 7 57 14 46 18 139 18 170 0z"/>
<path d="M4405 7534 c-11 -2 -85 -9 -165 -14 -173 -12 -278 -26 -341 -45 -26
-8 -61 -15 -78 -15 -17 0 -48 -6 -68 -14 -21 -7 -67 -21 -103 -31 -36 -9 -77
-23 -92 -31 -14 -8 -35 -14 -46 -14 -11 0 -33 -6 -49 -14 -15 -8 -53 -25 -83
-36 -113 -45 -207 -90 -305 -145 -33 -19 -67 -38 -75 -42 -8 -4 -34 -20 -56
-35 -23 -15 -45 -28 -48 -28 -13 0 -253 -185 -351 -271 -150 -131 -304 -298
-392 -427 -37 -54 -38 -56 -38 -151 0 -87 3 -100 26 -136 72 -110 210 -154
323 -104 52 23 94 62 187 176 117 142 273 288 447 417 57 42 108 76 113 76 5
0 28 12 52 27 64 42 76 48 157 88 71 35 96 46 173 79 131 56 419 136 484 136
12 0 48 7 80 15 45 12 119 15 333 15 214 0 288 -3 333 -15 32 -8 70 -15 85
-15 15 0 49 -7 76 -15 27 -8 62 -15 77 -15 16 0 43 -6 61 -14 18 -7 60 -21 93
-31 62 -18 115 -37 175 -63 19 -8 49 -20 65 -27 39 -17 174 -83 200 -99 11 -6
39 -24 62 -39 24 -15 47 -27 52 -27 14 0 203 -141 286 -214 105 -91 183 -170
275 -281 46 -55 97 -112 114 -128 119 -109 303 -82 395 58 24 36 26 49 26 136
0 95 -1 97 -38 151 -43 63 -165 208 -240 287 -107 110 -439 382 -507 414 -8 4
-28 16 -45 27 -16 11 -39 24 -50 30 -11 6 -47 26 -80 45 -85 50 -189 99 -305
145 -30 11 -68 28 -83 36 -16 8 -38 14 -49 14 -11 0 -32 6 -46 14 -31 16 -131
46 -154 46 -9 0 -29 7 -44 15 -16 8 -44 15 -62 15 -18 0 -54 6 -80 14 -93 28
-251 45 -542 59 -63 3 -124 4 -135 1z"/>
<path d="M4210 4359 c-36 -5 -101 -13 -145 -18 -44 -5 -102 -15 -130 -21 -102
-23 -141 -31 -189 -40 -27 -5 -54 -14 -60 -20 -5 -5 -21 -10 -34 -10 -13 0
-33 -5 -45 -12 -12 -6 -35 -15 -52 -19 -34 -8 -85 -26 -132 -46 -18 -7 -48
-19 -65 -26 -229 -94 -504 -255 -673 -393 -114 -93 -145 -121 -235 -209 -130
-127 -261 -275 -295 -335 -6 -10 -17 -26 -25 -35 -11 -13 -15 -45 -15 -119 1
-91 3 -105 25 -137 14 -19 47 -53 74 -75 l50 -39 95 0 c130 0 141 7 295 191
92 109 290 296 408 386 64 48 119 88 122 88 2 0 50 27 106 60 138 82 300 156
430 196 30 9 70 23 88 30 18 8 42 14 53 14 11 0 30 5 42 12 12 7 47 15 77 18
30 4 82 12 115 18 263 49 538 49 785 0 30 -6 82 -14 115 -18 33 -4 75 -12 93
-19 74 -26 99 -33 132 -41 19 -4 46 -12 60 -18 14 -5 45 -18 70 -27 120 -46
234 -102 340 -165 56 -33 104 -60 106 -60 3 0 59 -41 125 -90 119 -90 340
-300 415 -394 72 -90 109 -129 149 -155 36 -23 50 -26 135 -26 94 0 96 1 143
37 26 20 60 54 75 75 25 35 27 46 27 139 0 83 -3 105 -17 121 -10 11 -18 24
-18 29 0 6 -12 23 -28 40 -15 16 -45 52 -67 79 -74 93 -249 270 -346 352 -26
21 -69 56 -95 79 -46 38 -170 124 -274 190 -100 63 -240 134 -390 197 -19 8
-51 21 -70 29 -48 21 -99 38 -135 47 -17 4 -40 13 -52 19 -12 7 -32 12 -45 12
-13 0 -29 5 -34 10 -6 6 -33 15 -60 20 -49 9 -92 18 -189 40 -27 7 -68 14 -90
16 -22 3 -93 11 -158 19 -131 16 -479 18 -587 4z"/>
</g>
</svg>
