<?xml version="1.0" standalone="no"?>
<!DOCTYPE svg PUBLIC "-//W3C//DTD SVG 20010904//EN"
 "http://www.w3.org/TR/2001/REC-SVG-20010904/DTD/svg10.dtd">
<svg version="1.0" xmlns="http://www.w3.org/2000/svg"
 width="300.000000pt" height="300.000000pt" viewBox="0 0 300.000000 300.000000"
 preserveAspectRatio="xMidYMid meet">
<metadata>
Created by potrace 1.10, written by Peter Selinger 2001-2011
</metadata>
<g transform="translate(0.000000,300.000000) scale(0.100000,-0.100000)"
fill="#f2f2f2" stroke="none">
<path d="M55 2811 c-33 -14 -48 -39 -48 -82 0 -28 7 -47 22 -62 21 -21 30 -22
269 -24 l247 -1 82 -369 c45 -202 89 -397 97 -433 9 -36 43 -191 77 -345 58
-263 61 -280 44 -290 -42 -24 -95 -79 -114 -119 -15 -30 -21 -62 -21 -109 0
-113 45 -188 143 -237 l60 -30 837 0 c820 0 838 0 863 20 46 37 43 113 -6 139
-16 8 -256 12 -850 14 l-829 2 -24 28 c-32 38 -32 90 1 122 l24 25 828 0 828
0 27 23 c24 20 46 87 204 642 97 340 177 633 177 651 0 17 -7 43 -16 58 l-17
26 -1098 2 -1097 3 -16 70 c-9 39 -24 105 -34 148 -10 48 -25 88 -40 105 l-23
27 -289 2 c-158 1 -297 -2 -308 -6z m594 -55 c6 -7 24 -72 41 -145 33 -144 42
-164 77 -180 17 -8 354 -11 1092 -11 1042 0 1069 0 1092 -19 21 -17 22 -23 12
-40 -7 -11 -90 -289 -184 -618 -143 -502 -174 -602 -195 -621 l-25 -22 -810 0
c-894 0 -849 3 -889 -63 -26 -42 -25 -86 3 -128 48 -73 -1 -69 903 -69 617 0
813 -3 822 -12 18 -18 14 -56 -7 -68 -11 -5 -39 -10 -63 -10 -24 0 -64 -7 -89
-17 -43 -15 -50 -15 -88 0 -37 15 -102 17 -574 17 -466 0 -539 -2 -581 -16
-40 -14 -52 -14 -74 -4 -15 7 -68 16 -119 20 -113 9 -169 38 -214 108 -24 38
-29 56 -29 110 0 80 18 119 80 175 25 23 52 52 58 64 10 19 -12 133 -143 725
-138 619 -159 706 -181 728 l-24 25 -239 3 c-222 3 -240 4 -256 22 -17 19 -17
21 0 40 17 19 33 20 284 22 286 3 305 2 320 -16z"/>
<path d="M790 2310 c-11 -11 -20 -29 -20 -40 0 -11 50 -247 111 -523 105 -477
112 -503 140 -529 l29 -28 710 0 c483 0 717 3 733 11 12 6 28 19 35 30 10 15
268 902 297 1022 6 22 2 34 -16 53 l-22 24 -989 0 c-975 0 -988 0 -1008 -20z
m1856 -547 l-151 -528 -729 0 -730 0 -28 125 c-15 69 -43 197 -63 285 -53 246
-135 608 -141 628 -5 16 47 17 994 17 l999 0 -151 -527z"/>
<path d="M1021 673 c-85 -42 -139 -131 -139 -228 0 -145 116 -259 264 -258 77
1 138 28 189 85 50 55 65 95 65 175 0 82 -23 135 -84 191 -75 69 -198 84 -295
35z m182 -9 c102 -51 157 -126 157 -214 0 -89 -44 -161 -124 -202 -60 -31
-160 -23 -218 17 -51 35 -98 120 -98 175 0 54 27 123 60 155 31 30 137 93 158
94 7 1 36 -11 65 -25z"/>
<path d="M1059 531 c-34 -34 -39 -44 -39 -86 0 -42 5 -52 39 -86 32 -32 46
-39 78 -39 89 0 152 87 122 166 -19 49 -69 84 -122 84 -32 0 -46 -7 -78 -39z
m146 -26 c34 -33 34 -87 0 -120 -54 -55 -149 -17 -149 60 0 77 95 115 149 60z"/>
<path d="M2261 674 c-63 -32 -105 -85 -128 -163 -53 -181 116 -360 303 -321
236 49 285 372 74 482 -73 39 -173 40 -249 2z m201 -20 c80 -45 93 -57 118
-110 47 -96 17 -218 -68 -278 -37 -26 -54 -31 -115 -34 -91 -4 -147 22 -193
90 -53 79 -52 174 3 251 28 39 141 114 175 116 9 1 45 -15 80 -35z"/>
<path d="M2306 539 c-60 -52 -61 -126 -1 -186 27 -27 40 -33 78 -33 50 0 88
24 112 70 42 82 -19 180 -111 180 -34 0 -51 -7 -78 -31z m139 -34 c54 -53 16
-145 -60 -145 -49 0 -85 36 -85 85 0 49 36 85 85 85 25 0 44 -8 60 -25z"/>
</g>
</svg>
