<?xml version="1.0" standalone="no"?>
<!DOCTYPE svg PUBLIC "-//W3C//DTD SVG 20010904//EN"
 "http://www.w3.org/TR/2001/REC-SVG-20010904/DTD/svg10.dtd">
<svg version="1.0" xmlns="http://www.w3.org/2000/svg"
 width="300.000000pt" height="300.000000pt" viewBox="0 0 300.000000 300.000000"
 preserveAspectRatio="xMidYMid meet">
<metadata>
Created by potrace 1.10, written by Peter Selinger 2001-2011
</metadata>
<g transform="translate(0.000000,300.000000) scale(0.100000,-0.100000)"
fill="#ffffff" stroke="none">
<path d="M1468 2988 c-9 -7 -71 -96 -138 -198 -67 -102 -126 -189 -130 -193
-4 -4 -105 -34 -225 -65 -188 -50 -221 -62 -238 -84 -25 -33 -25 -34 138 -238
72 -91 134 -171 139 -178 4 -7 2 -117 -4 -243 -12 -217 -12 -230 5 -249 10
-11 27 -20 38 -20 11 0 118 37 237 81 l218 82 209 -82 c115 -44 218 -81 229
-81 12 0 29 9 39 20 17 19 17 34 7 257 -9 207 -8 240 5 260 8 13 20 23 25 23
21 0 135 -90 199 -157 148 -153 247 -362 274 -576 l7 -57 -1002 0 -1002 0 7
63 c12 100 51 224 107 336 55 110 60 137 32 158 -48 35 -83 5 -147 -122 -66
-134 -103 -271 -114 -425 -5 -80 -4 -89 16 -109 l21 -21 1080 0 c1067 0 1080
0 1100 20 23 23 26 69 9 186 -39 284 -187 548 -403 722 -42 34 -84 65 -93 70
-15 9 -6 23 63 108 107 131 111 140 87 172 -16 21 -54 35 -242 87 -122 34
-228 69 -235 76 -7 8 -64 93 -125 189 -114 178 -132 200 -161 200 -9 0 -23 -6
-32 -12z m142 -324 l105 -165 50 -14 c28 -8 115 -32 194 -54 79 -22 145 -42
148 -45 3 -2 -47 -67 -110 -143 -63 -77 -119 -148 -124 -159 -7 -12 -7 -85 -1
-213 5 -106 7 -195 4 -198 -3 -3 -82 24 -176 61 -94 36 -180 66 -192 66 -12 0
-101 -30 -200 -67 -98 -36 -180 -64 -183 -61 -3 3 -1 77 5 164 5 87 10 175 10
194 0 30 -19 58 -126 193 -70 87 -125 160 -122 162 2 2 83 25 179 51 95 25
181 50 190 54 8 5 64 83 125 174 60 91 111 165 114 165 3 0 52 -74 110 -165z"/>
<path d="M736 2044 c-36 -35 -9 -94 43 -94 35 0 51 17 51 55 0 17 -5 36 -12
43 -17 17 -64 15 -82 -4z"/>
<path d="M17 1032 c-15 -16 -17 -50 -17 -274 0 -234 1 -256 18 -271 25 -23 58
-21 82 3 17 17 20 33 20 115 l0 95 33 0 c86 0 159 41 188 104 25 55 24 104 -4
157 -37 70 -80 89 -203 89 -85 0 -103 -3 -117 -18z m201 -108 c30 -20 30 -68
0 -88 -12 -9 -39 -16 -60 -16 l-38 0 0 60 0 60 38 0 c21 0 48 -7 60 -16z"/>
<path d="M473 1039 c-10 -10 -13 -79 -13 -275 0 -284 2 -294 54 -294 44 0 56
28 56 134 0 127 13 125 88 -13 64 -117 77 -130 119 -115 45 15 42 56 -10 161
l-45 88 25 19 c42 31 63 76 63 134 0 64 -18 102 -67 139 -34 26 -44 28 -147
31 -80 3 -114 0 -123 -9z m202 -124 c30 -29 31 -49 5 -75 -14 -14 -33 -20 -65
-20 l-45 0 0 60 0 60 40 0 c30 0 47 -7 65 -25z"/>
<path d="M927 1032 c-15 -16 -17 -50 -17 -268 0 -210 2 -253 16 -272 14 -21
22 -22 148 -22 116 0 135 2 149 18 21 23 22 52 3 78 -12 16 -29 20 -105 22
l-91 4 0 54 0 54 38 0 c50 0 82 23 82 60 0 41 -24 60 -76 60 l-44 0 0 60 0 60
88 0 c96 0 122 12 122 58 0 45 -22 52 -164 52 -116 0 -135 -2 -149 -18z"/>
<path d="M1352 1038 c-9 -9 -12 -84 -12 -274 0 -284 2 -294 54 -294 48 0 55
24 58 185 l3 150 30 -42 c56 -77 94 -77 150 2 l35 49 0 -156 c0 -137 2 -157
18 -171 23 -21 52 -22 78 -3 18 13 19 30 22 266 3 279 -1 300 -56 300 -37 0
-40 -3 -107 -97 -32 -46 -61 -83 -64 -83 -4 0 -35 41 -70 90 -57 81 -67 90
-95 90 -18 0 -37 -5 -44 -12z"/>
<path d="M1897 1032 c-15 -16 -17 -50 -17 -268 0 -277 4 -294 60 -294 57 0 60
17 60 296 0 230 -1 252 -18 267 -24 22 -65 21 -85 -1z"/>
<path d="M2106 1028 c-13 -18 -16 -55 -16 -203 1 -249 12 -287 100 -332 86
-44 192 -16 237 63 22 37 23 50 23 255 0 234 -1 239 -55 239 -53 0 -55 -7 -55
-220 0 -222 -5 -240 -65 -240 -60 0 -65 18 -65 237 0 161 -3 194 -16 207 -23
24 -70 20 -88 -6z"/>
<path d="M2566 1034 c-14 -13 -16 -52 -16 -273 0 -237 1 -259 18 -274 23 -21
52 -22 78 -3 17 13 20 31 24 168 l5 153 24 -38 c29 -47 63 -71 90 -62 12 3 35
27 53 52 l33 45 5 -152 c4 -135 7 -153 24 -166 27 -19 60 -18 79 4 15 16 17
50 17 274 0 234 -1 256 -18 271 -10 10 -31 17 -45 17 -23 0 -39 -15 -94 -91
l-67 -92 -20 25 c-12 13 -42 55 -68 91 -41 57 -52 67 -77 67 -16 0 -37 -7 -45
-16z"/>
<path d="M396 328 c-13 -18 -16 -51 -16 -155 0 -120 2 -135 20 -153 20 -20 33
-20 1100 -20 1067 0 1080 0 1100 20 18 18 20 33 20 153 0 104 -3 137 -16 155
l-15 22 -1089 0 -1089 0 -15 -22z m2104 -153 l0 -55 -1000 0 -1000 0 0 55 0
55 1000 0 1000 0 0 -55z"/>
</g>
</svg>
